<svg width="60" height="59" viewBox="0 0 60 59" fill="none" xmlns="http://www.w3.org/2000/svg">
<rect width="60" height="58.5565" rx="10" fill="white"/>
<path d="M8.05682 33.7783V25.051H13.2898V25.9885H9.11364V28.9374H12.8977V29.8749H9.11364V33.7783H8.05682ZM18.6783 31.1022V27.2329H19.6839V33.7783H18.6783V32.6704H18.6101C18.4567 33.0028 18.218 33.2854 17.8942 33.5184C17.5703 33.7485 17.1612 33.8635 16.6669 33.8635C16.2578 33.8635 15.8942 33.7741 15.576 33.5951C15.2578 33.4133 15.0078 33.1405 14.826 32.7769C14.6442 32.4104 14.5533 31.9488 14.5533 31.392V27.2329H15.5589V31.3238C15.5589 31.801 15.6925 32.1817 15.9595 32.4658C16.2294 32.7499 16.5732 32.892 16.9908 32.892C17.2408 32.892 17.495 32.828 17.7536 32.7002C18.0149 32.5724 18.2337 32.3763 18.4098 32.1121C18.5888 31.8479 18.6783 31.5113 18.6783 31.1022ZM22.5316 29.8408V33.7783H21.5259V27.2329H22.4975V28.2556H22.5827C22.7362 27.9232 22.9691 27.6562 23.2816 27.4545C23.5941 27.2499 23.9975 27.1476 24.4918 27.1476C24.935 27.1476 25.3228 27.2385 25.6552 27.4204C25.9876 27.5993 26.2461 27.8721 26.4308 28.2385C26.6154 28.6022 26.7077 29.0624 26.7077 29.6192V33.7783H25.7021V29.6874C25.7021 29.1732 25.5685 28.7726 25.3015 28.4857C25.0344 28.1959 24.668 28.051 24.2021 28.051C23.881 28.051 23.5941 28.1206 23.3413 28.2599C23.0913 28.3991 22.8938 28.6022 22.7489 28.8692C22.604 29.1363 22.5316 29.4601 22.5316 29.8408ZM31.392 27.2329V28.0851H28V27.2329H31.392ZM28.9886 25.6647H29.9943V31.9033C29.9943 32.1874 30.0355 32.4005 30.1179 32.5425C30.2031 32.6817 30.3111 32.7755 30.4418 32.8238C30.5753 32.8692 30.7159 32.892 30.8636 32.892C30.9744 32.892 31.0653 32.8863 31.1364 32.8749C31.2074 32.8607 31.2642 32.8493 31.3068 32.8408L31.5114 33.7442C31.4432 33.7698 31.348 33.7954 31.2259 33.8209C31.1037 33.8493 30.9489 33.8635 30.7614 33.8635C30.4773 33.8635 30.1989 33.8025 29.9261 33.6803C29.6563 33.5581 29.4318 33.3721 29.2528 33.1221C29.0767 32.8721 28.9886 32.5567 28.9886 32.176V25.6647ZM35.4936 33.9147C34.9027 33.9147 34.3842 33.7741 33.9382 33.4928C33.495 33.2116 33.1484 32.8181 32.8984 32.3124C32.6513 31.8067 32.5277 31.2158 32.5277 30.5397C32.5277 29.8579 32.6513 29.2627 32.8984 28.7542C33.1484 28.2456 33.495 27.8508 33.9382 27.5695C34.3842 27.2883 34.9027 27.1476 35.4936 27.1476C36.0845 27.1476 36.6016 27.2883 37.0447 27.5695C37.4908 27.8508 37.8374 28.2456 38.0845 28.7542C38.3345 29.2627 38.4595 29.8579 38.4595 30.5397C38.4595 31.2158 38.3345 31.8067 38.0845 32.3124C37.8374 32.8181 37.4908 33.2116 37.0447 33.4928C36.6016 33.7741 36.0845 33.9147 35.4936 33.9147ZM35.4936 33.0113C35.9425 33.0113 36.3118 32.8962 36.6016 32.6661C36.8913 32.436 37.1058 32.1334 37.245 31.7584C37.3842 31.3834 37.4538 30.9772 37.4538 30.5397C37.4538 30.1022 37.3842 29.6945 37.245 29.3167C37.1058 28.9388 36.8913 28.6334 36.6016 28.4005C36.3118 28.1675 35.9425 28.051 35.4936 28.051C35.0447 28.051 34.6754 28.1675 34.3857 28.4005C34.0959 28.6334 33.8814 28.9388 33.7422 29.3167C33.603 29.6945 33.5334 30.1022 33.5334 30.5397C33.5334 30.9772 33.603 31.3834 33.7422 31.7584C33.8814 32.1334 34.0959 32.436 34.3857 32.6661C34.6754 32.8962 35.0447 33.0113 35.4936 33.0113ZM42.6538 33.9147C42.0629 33.9147 41.5444 33.7741 41.0984 33.4928C40.6552 33.2116 40.3086 32.8181 40.0586 32.3124C39.8114 31.8067 39.6879 31.2158 39.6879 30.5397C39.6879 29.8579 39.8114 29.2627 40.0586 28.7542C40.3086 28.2456 40.6552 27.8508 41.0984 27.5695C41.5444 27.2883 42.0629 27.1476 42.6538 27.1476C43.2447 27.1476 43.7617 27.2883 44.2049 27.5695C44.6509 27.8508 44.9975 28.2456 45.2447 28.7542C45.4947 29.2627 45.6197 29.8579 45.6197 30.5397C45.6197 31.2158 45.4947 31.8067 45.2447 32.3124C44.9975 32.8181 44.6509 33.2116 44.2049 33.4928C43.7617 33.7741 43.2447 33.9147 42.6538 33.9147ZM42.6538 33.0113C43.1026 33.0113 43.4719 32.8962 43.7617 32.6661C44.0515 32.436 44.266 32.1334 44.4052 31.7584C44.5444 31.3834 44.614 30.9772 44.614 30.5397C44.614 30.1022 44.5444 29.6945 44.4052 29.3167C44.266 28.9388 44.0515 28.6334 43.7617 28.4005C43.4719 28.1675 43.1026 28.051 42.6538 28.051C42.2049 28.051 41.8356 28.1675 41.5458 28.4005C41.256 28.6334 41.0415 28.9388 40.9023 29.3167C40.7631 29.6945 40.6935 30.1022 40.6935 30.5397C40.6935 30.9772 40.7631 31.3834 40.9023 31.7584C41.0415 32.1334 41.256 32.436 41.5458 32.6661C41.8356 32.8962 42.2049 33.0113 42.6538 33.0113ZM48.0923 31.392L48.0753 30.1476H48.2798L51.1435 27.2329H52.3878L49.3366 30.3181H49.2514L48.0923 31.392ZM47.1548 33.7783V25.051H48.1605V33.7783H47.1548ZM51.3139 33.7783L48.7571 30.5397L49.473 29.8408L52.5923 33.7783H51.3139Z" fill="#FF4C6B"/>
</svg>
