<svg width="20" height="23" viewBox="0 0 20 23" fill="none" xmlns="http://www.w3.org/2000/svg">
<path d="M9.74858 0.00049734C10.0892 0.00049734 10.4247 0.0249376 10.7367 0.082444C11.0441 0.126234 11.3474 0.200329 11.6429 0.303844C11.9376 0.401605 12.2297 0.52764 12.5192 0.681948C12.8013 0.830027 13.0912 1.01117 13.3812 1.20813C13.8713 1.55317 14.3537 1.83208 14.8451 2.05491C15.8124 2.48397 16.8355 2.7388 17.8757 2.80969C18.4019 2.85282 18.9466 2.87486 19.51 2.87582V8.62646C19.51 9.71812 19.3839 10.7561 19.1317 11.7404C18.8893 12.7126 18.5451 13.6501 18.1059 14.5338C17.6685 15.4164 17.151 16.2473 16.5613 17.0138C15.9629 17.798 15.3147 18.5341 14.6215 19.2163C13.9186 19.8996 13.1792 20.5357 12.4074 21.1212C11.6342 21.7154 10.8567 22.2631 10.0749 22.7644L9.76289 22.97L9.45085 22.7644C8.64886 22.2511 7.86557 21.703 7.10281 21.1212C6.32684 20.542 5.58712 19.9056 4.88868 19.2163C4.19596 18.534 3.54815 17.798 2.95018 17.0138C2.36245 16.2437 1.84263 15.4133 1.39781 14.5338C0.966509 13.6459 0.622605 12.7094 0.372008 11.7404C0.119862 10.7261 -0.00525054 9.67837 0.000168777 8.62646V2.87582C0.563561 2.87486 1.10875 2.85282 1.63574 2.80969C2.15543 2.77062 2.67174 2.68844 3.1803 2.56385C3.67825 2.44021 4.1762 2.27631 4.66635 2.05491C5.17485 1.82763 5.66246 1.54696 6.12251 1.21676C6.69457 0.805587 7.27443 0.502241 7.84649 0.302406C8.46262 0.0937863 9.10426 -0.00805694 9.74858 0.00049734ZM18.2021 4.28904C17.2179 4.23578 16.243 4.05384 15.2976 3.74704C14.3575 3.43615 13.4619 2.97972 12.6375 2.39133C12.2097 2.08167 11.7456 1.83835 11.258 1.66818C10.7707 1.50567 10.2641 1.42522 9.75508 1.42953C9.24232 1.42608 8.73191 1.5065 8.24043 1.66818C7.7523 1.83328 7.28882 2.07694 6.86488 2.39133C6.03874 2.98234 5.14093 3.44073 4.19831 3.75279C3.27694 4.04895 2.31094 4.23009 1.3003 4.29623V8.63365C1.3003 9.58538 1.41212 10.4997 1.63574 11.3767C1.86376 12.2474 2.17768 13.0877 2.57184 13.8825C2.97088 14.6856 3.44125 15.4426 3.97598 16.1425C4.51814 16.8484 5.0967 17.5055 5.72076 18.1294C6.34483 18.7533 6.9988 19.3313 7.68267 19.8632C8.37347 20.3961 9.06428 20.8835 9.75508 21.3253C10.4623 20.8708 11.1516 20.383 11.821 19.8632C12.5102 19.3327 13.1677 18.7536 13.7894 18.1294C14.4135 17.5055 14.9933 16.8484 15.5355 16.1425C16.0702 15.4426 16.5406 14.6856 16.9396 13.8825C17.3318 13.0886 17.6411 12.2479 17.8614 11.3767C18.0921 10.4849 18.2068 9.56124 18.2021 8.63365V4.28904Z" fill="#005EFF"/>
<path fill-rule="evenodd" clip-rule="evenodd" d="M15.6838 7.0068L15.0905 6.49707L14.543 6.54427L8.66359 13.4863L6.66109 10.6275L6.12169 10.5358L5.49734 10.9821L5.4043 11.5215L7.97855 15.1975L8.27118 15.3593L8.88743 15.3971L9.20298 15.2595L15.7229 7.55293L15.6838 7.0068Z" fill="#005EFF"/>
</svg>
