<svg width="1440" height="476" viewBox="0 0 1440 476" fill="none" xmlns="http://www.w3.org/2000/svg">
<path d="M26.2985 187.324C30.4635 164.69 52.3914 149.88 74.9426 154.47C97.1047 158.981 111.465 180.541 107.085 202.73L63.0109 426.001L-17.6165 425.965L26.2985 187.324Z" fill="url(#paint0_linear_1_9260)"/>
<path d="M155.237 118.555C165.841 99.2351 189.261 91.4648 209.61 99.9271C232.259 109.346 242.986 135.34 233.572 157.991L122.185 425.988L81.8969 425.988L61.7529 425.988L51.6479 425.988L41.6359 425.988C41.6359 425.988 63.6094 311.299 99.4005 230.77C119.493 185.563 140.592 145.235 155.237 118.555Z" fill="url(#paint1_linear_1_9260)"/>
<path d="M289.754 101.546C307.058 82.3931 336.214 80.8246 356.033 97.3628C377.163 114.995 379.76 146.516 361.801 167.369L275.298 267.814L183.889 425.451L90.224 425.451C90.224 425.451 137.459 305.35 186.176 231.105C216.162 185.406 260.269 134.181 289.754 101.546Z" fill="url(#paint2_linear_1_9260)"/>
<path d="M0.00280056 426.005C-0.0719838 393.579 23.4583 362.542 65.0155 339.517C106.573 316.493 162.978 303.482 221.824 303.346C280.67 303.21 337.135 315.961 378.798 338.794C420.461 361.626 443.912 393.579 443.987 426.005L333.042 426.005L277.548 426.005L221.985 426.005L0.00280056 426.005Z" fill="#5E2B51"/>
<path d="M1440 313.228C1390.84 313.228 1342.67 303.393 1300.94 284.839C1259.22 266.286 1225.61 239.755 1203.93 208.257C1182.25 176.759 1173.36 141.554 1178.28 106.634C1183.2 71.7145 1207.68 27.6592 1237.71 -0.125H1365.62C1295.79 60.8059 1302.65 96.6997 1300.02 115.377C1297.39 134.054 1302.14 152.884 1313.73 169.731C1325.33 186.578 1343.31 200.768 1365.62 210.692C1387.94 220.615 1413.71 225.875 1440 225.875V313.228Z" fill="#5E2B51"/>
<defs>
<linearGradient id="paint0_linear_1_9260" x1="95.6802" y1="40.6154" x2="3.42506" y2="425.535" gradientUnits="userSpaceOnUse">
<stop stop-color="#410202"/>
<stop offset="0.555501" stop-color="#5E2B51"/>
</linearGradient>
<linearGradient id="paint1_linear_1_9260" x1="227.467" y1="68.1592" x2="69.8024" y2="432.55" gradientUnits="userSpaceOnUse">
<stop stop-color="#410202"/>
<stop offset="0.572707" stop-color="#5E2B51"/>
</linearGradient>
<linearGradient id="paint2_linear_1_9260" x1="348.276" y1="91.1704" x2="119.56" y2="437.482" gradientUnits="userSpaceOnUse">
<stop stop-color="#410202"/>
<stop offset="0.523452" stop-color="#5E2B51"/>
</linearGradient>
</defs>
</svg>
