<svg width="82" height="80" viewBox="0 0 82 80" fill="none" xmlns="http://www.w3.org/2000/svg">
<path d="M20.5001 71.75C18.5731 71.75 16.9524 71.0929 15.6382 69.7786C14.3239 68.4643 13.6667 66.8437 13.6667 64.9167V60.9738C13.6667 59.4568 14.2077 58.1585 15.2897 57.0788C16.3716 55.9992 17.6699 55.4582 19.1847 55.4559H23.9167V15.7713C23.9167 14.2521 24.4577 12.9526 25.5397 11.8729C26.6216 10.7932 27.9199 10.2523 29.4347 10.25H62.8155C64.3325 10.25 65.6308 10.791 66.7105 11.8729C67.7902 12.9549 68.3311 14.2532 68.3334 15.7679V64.9167C68.3334 66.8437 67.6763 68.4643 66.362 69.7786C65.0477 71.0929 63.4271 71.75 61.5001 71.75H20.5001ZM61.5001 68.3333C62.4681 68.3333 63.2802 68.0053 63.9362 67.3493C64.5922 66.6933 64.919 65.8824 64.9167 64.9167V15.7713C64.9167 15.1563 64.7197 14.6518 64.3257 14.2577C63.9316 13.8637 63.4282 13.6667 62.8155 13.6667H29.4347C28.8219 13.6667 28.3186 13.8637 27.9245 14.2577C27.5304 14.6518 27.3334 15.1563 27.3334 15.7713V55.4525H52.5655C54.0825 55.4525 55.3808 55.9923 56.4605 57.072C57.5402 58.1517 58.0811 59.4523 58.0834 60.9738V64.9167C58.0834 65.8847 58.4114 66.6968 59.0674 67.3527C59.7234 68.0088 60.5343 68.3356 61.5001 68.3333ZM33.7738 28.6488C33.2887 28.6488 32.8821 28.4848 32.5541 28.1568C32.2284 27.8288 32.0655 27.4222 32.0655 26.937C32.0655 26.4518 32.2284 26.0464 32.5541 25.7207C32.8798 25.3949 33.2864 25.2321 33.7738 25.2321H58.4763C58.9615 25.2321 59.3681 25.3961 59.6961 25.7241C60.0241 26.0521 60.1869 26.4575 60.1847 26.9404C60.1824 27.4233 60.0195 27.8288 59.6961 28.1568C59.3726 28.4848 58.9661 28.6488 58.4763 28.6488H33.7738ZM33.7738 38.1095C33.2887 38.1095 32.8821 37.9455 32.5541 37.6175C32.2284 37.2895 32.0655 36.8829 32.0655 36.3978C32.0655 35.9126 32.2284 35.5071 32.5541 35.1814C32.8798 34.8557 33.2864 34.6928 33.7738 34.6928H58.4763C58.9615 34.6928 59.3681 34.8568 59.6961 35.1848C60.0241 35.5128 60.1869 35.9194 60.1847 36.4046C60.1824 36.8897 60.0195 37.2952 59.6961 37.6209C59.3726 37.9466 58.9661 38.1095 58.4763 38.1095H33.7738Z" fill="#FC6E88"/>
</svg>
