<svg width="82" height="80" viewBox="0 0 82 80" fill="none" xmlns="http://www.w3.org/2000/svg">
<path d="M5.125 24.3438C5.125 21.2855 6.3399 18.3525 8.50242 16.1899C10.665 14.0274 13.598 12.8125 16.6562 12.8125H65.3438C68.402 12.8125 71.335 14.0274 73.4976 16.1899C75.6601 18.3525 76.875 21.2855 76.875 24.3438V57.6562C76.875 60.7145 75.6601 63.6475 73.4976 65.8101C71.335 67.9726 68.402 69.1875 65.3438 69.1875H16.6562C13.598 69.1875 10.665 67.9726 8.50242 65.8101C6.3399 63.6475 5.125 60.7145 5.125 57.6562V24.3438ZM16.6562 17.9375C14.9572 17.9375 13.3278 18.6124 12.1263 19.8138C10.9249 21.0153 10.25 22.6447 10.25 24.3438V28.1875H71.75V24.3438C71.75 22.6447 71.0751 21.0153 69.8736 19.8138C68.6722 18.6124 67.0428 17.9375 65.3438 17.9375H16.6562ZM10.25 57.6562C10.25 59.3553 10.9249 60.9847 12.1263 62.1862C13.3278 63.3876 14.9572 64.0625 16.6562 64.0625H65.3438C67.0428 64.0625 68.6722 63.3876 69.8736 62.1862C71.0751 60.9847 71.75 59.3553 71.75 57.6562V33.3125H10.25V57.6562ZM53.8125 48.6875H61.5C62.1796 48.6875 62.8314 48.9575 63.312 49.438C63.7925 49.9186 64.0625 50.5704 64.0625 51.25C64.0625 51.9296 63.7925 52.5814 63.312 53.062C62.8314 53.5425 62.1796 53.8125 61.5 53.8125H53.8125C53.1329 53.8125 52.4811 53.5425 52.0005 53.062C51.52 52.5814 51.25 51.9296 51.25 51.25C51.25 50.5704 51.52 49.9186 52.0005 49.438C52.4811 48.9575 53.1329 48.6875 53.8125 48.6875Z" fill="#FC6E88"/>
</svg>
