<svg width="82" height="80" viewBox="0 0 82 80" fill="none" xmlns="http://www.w3.org/2000/svg">
<path d="M41.0002 76.8748C65.771 76.8748 75.1668 71.7498 75.1668 52.9581M11.622 61.1291C8.74512 60.4099 6.8335 57.7841 6.8335 54.8202V44.2661C6.8335 41.3004 8.74512 38.673 11.622 37.9538C14.3997 37.2585 18.0487 36.4778 21.6362 36.102C24.0928 35.844 26.2555 37.2841 26.6638 39.7185C27.0226 41.8437 27.3335 44.999 27.3335 49.5414C27.3335 54.0856 27.0209 57.2409 26.6638 59.3643C26.2538 61.7987 24.0928 63.2388 21.6362 62.9826C18.0487 62.6068 14.3997 61.8244 11.622 61.1291Z" stroke="#FC6E88" stroke-width="5.125" stroke-linecap="round" stroke-linejoin="round"/>
<path d="M70.3785 61.1291C73.2554 60.4099 75.167 57.7841 75.167 54.8202V44.2661C75.167 41.3004 73.2554 38.673 70.3785 37.9538C67.6008 37.2585 63.9518 36.4778 60.3643 36.102C57.9077 35.844 55.7449 37.2841 55.3367 39.7185C54.9779 41.8437 54.667 44.999 54.667 49.5414C54.667 54.0856 54.9796 57.2409 55.3367 59.3643C55.7467 61.7987 57.9077 63.2388 60.3643 62.9826C63.9518 62.6068 67.6008 61.8244 70.3785 61.1291Z" stroke="#FC6E88" stroke-width="5.125" stroke-linecap="round" stroke-linejoin="round"/>
<path d="M75.1668 44.2646V39.2917C75.1668 20.4214 59.8704 5.125 41.0002 5.125C22.1299 5.125 6.8335 20.4214 6.8335 39.2917V44.2646M64.8417 36.7514C63.8679 24.7879 53.5667 15.375 41.0002 15.375C28.4337 15.375 18.1324 24.7879 17.1587 36.7514" stroke="#FC6E88" stroke-width="5.125" stroke-linecap="round" stroke-linejoin="round"/>
</svg>
