<svg width="82" height="80" viewBox="0 0 82 80" fill="none" xmlns="http://www.w3.org/2000/svg">
<path d="M73.3558 38.2153L69.8367 33.3295C69.049 32.2232 68.0089 31.3207 66.8027 30.6968C65.5965 30.0729 64.2589 29.7456 62.9008 29.742H47.9358V22.4303C47.9358 20.1649 47.0359 17.9923 45.434 16.3905C43.8322 14.7886 41.6596 13.8887 39.3942 13.8887H15.58C13.3165 13.895 11.1476 14.7969 9.5471 16.3974C7.94659 17.9979 7.04464 20.1669 7.03833 22.4303V56.392C7.03833 57.7512 7.57828 59.0548 8.53941 60.0159C9.50053 60.9771 10.8041 61.517 12.1633 61.517H16.3317C16.5897 63.345 17.4992 65.0184 18.8928 66.2292C20.2865 67.44 22.0705 68.1067 23.9167 68.1067C25.7628 68.1067 27.5469 67.44 28.9405 66.2292C30.3342 65.0184 31.2437 63.345 31.5017 61.517H50.4983C50.7563 63.345 51.6658 65.0184 53.0595 66.2292C54.4531 67.44 56.2372 68.1067 58.0833 68.1067C59.9295 68.1067 61.7135 67.44 63.1072 66.2292C64.5008 65.0184 65.4103 63.345 65.6683 61.517H69.8367C71.1959 61.517 72.4995 60.9771 73.4606 60.0159C74.4217 59.0548 74.9617 57.7512 74.9617 56.392V43.1695C74.9551 41.3912 74.3938 39.6593 73.3558 38.2153ZM23.9167 64.6945C23.072 64.6945 22.2463 64.444 21.5439 63.9747C20.8416 63.5055 20.2942 62.8384 19.9709 62.0581C19.6477 61.2777 19.5631 60.4189 19.7279 59.5905C19.8927 58.762 20.2994 58.001 20.8967 57.4037C21.494 56.8064 22.255 56.3997 23.0835 56.2349C23.9119 56.0701 24.7706 56.1547 25.551 56.4779C26.3314 56.8012 26.9984 57.3486 27.4677 58.0509C27.937 58.7533 28.1875 59.579 28.1875 60.4237C28.1875 61.5564 27.7375 62.6427 26.9366 63.4436C26.1357 64.2445 25.0494 64.6945 23.9167 64.6945ZM44.5192 58.1003H31.2625C30.765 56.5428 29.7853 55.1836 28.4649 54.2192C27.1445 53.2549 25.5518 52.7351 23.9167 52.7351C22.2816 52.7351 20.6888 53.2549 19.3684 54.2192C18.048 55.1836 17.0683 56.5428 16.5708 58.1003H12.1633C11.7103 58.1003 11.2757 57.9204 10.9554 57.6C10.635 57.2796 10.455 56.8451 10.455 56.392V22.4303C10.455 21.0711 10.995 19.7675 11.9561 18.8064C12.9172 17.8453 14.2208 17.3053 15.58 17.3053H39.3942C40.7534 17.3053 42.057 17.8453 43.0181 18.8064C43.9792 19.7675 44.5192 21.0711 44.5192 22.4303V58.1003ZM58.0833 64.6945C57.2386 64.6945 56.4129 64.444 55.7106 63.9747C55.0082 63.5055 54.4608 62.8384 54.1376 62.0581C53.8143 61.2777 53.7298 60.4189 53.8946 59.5905C54.0593 58.762 54.4661 58.001 55.0634 57.4037C55.6607 56.8064 56.4217 56.3997 57.2501 56.2349C58.0786 56.0701 58.9373 56.1547 59.7177 56.4779C60.4981 56.8012 61.1651 57.3486 61.6344 58.0509C62.1037 58.7533 62.3542 59.579 62.3542 60.4237C62.3542 61.5564 61.9042 62.6427 61.1033 63.4436C60.3023 64.2445 59.216 64.6945 58.0833 64.6945ZM71.545 56.392C71.545 56.8451 71.365 57.2796 71.0446 57.6C70.7243 57.9204 70.2897 58.1003 69.8367 58.1003H65.4292C64.9317 56.5428 63.952 55.1836 62.6316 54.2192C61.3112 53.2549 59.7184 52.7351 58.0833 52.7351C56.4482 52.7351 54.8555 53.2549 53.5351 54.2192C52.2147 55.1836 51.235 56.5428 50.7375 58.1003H47.9358V33.1587H62.9008C63.7158 33.1652 64.5178 33.3635 65.2419 33.7374C65.966 34.1114 66.592 34.6505 67.0692 35.3112L70.5883 40.197C71.2026 41.0672 71.5364 42.1043 71.545 43.1695V56.392Z" fill="#FC6E88"/>
<path d="M61.599 41.7004H54.7657C54.3126 41.7004 53.8781 41.5204 53.5577 41.2C53.2374 40.8796 53.0574 40.4451 53.0574 39.992C53.0574 39.5389 53.2374 39.1044 53.5577 38.784C53.8781 38.4637 54.3126 38.2837 54.7657 38.2837H61.599C62.0521 38.2837 62.4866 38.4637 62.807 38.784C63.1274 39.1044 63.3074 39.5389 63.3074 39.992C63.3074 40.4451 63.1274 40.8796 62.807 41.2C62.4866 41.5204 62.0521 41.7004 61.599 41.7004Z" fill="#FC6E88"/>
</svg>
