<?xml version="1.0" encoding="UTF-8"?>
<svg version="1.1" xmlns="http://www.w3.org/2000/svg" width="598" height="274">
<path d="M0 0 C197.34 0 394.68 0 598 0 C598 90.42 598 180.84 598 274 C400.66 274 203.32 274 0 274 C0 183.58 0 93.16 0 0 Z " fill="#FEFEFE" transform="translate(0,0)"/>
<path d="M0 0 C3.3 0 6.6 0 10 0 C10 0.66 10 1.32 10 2 C16.6 2 23.2 2 30 2 C30 2.99 30 3.98 30 5 C28.68 5.33 27.36 5.66 26 6 C26.495 7.98 26.495 7.98 27 10 C27.99 10 28.98 10 30 10 C32.6875 12.375 32.6875 12.375 35 15 C35 15.66 35 16.32 35 17 C35.66 17 36.32 17 37 17 C37.495 19.475 37.495 19.475 38 22 C38.66 22 39.32 22 40 22 C40 23.65 40 25.3 40 27 C40.66 27 41.32 27 42 27 C45.05128582 36.91667892 44.26223172 46.81198684 43 57 C42.01 57 41.02 57 40 57 C39.87625 57.721875 39.7525 58.44375 39.625 59.1875 C39.0095069 61.95721894 38.11555626 64.3970354 37 67 C36.34 67 35.68 67 35 67 C35 67.66 35 68.32 35 69 C33.35 69.33 31.7 69.66 30 70 C30 70.66 30 71.32 30 72 C29.34 72 28.68 72 28 72 C28 72.66 28 73.32 28 74 C27.01 74 26.02 74 25 74 C25 74.99 25 75.98 25 77 C19.39 77 13.78 77 8 77 C8 76.34 8 75.68 8 75 C6.68 75 5.36 75 4 75 C1.875 73.0625 1.875 73.0625 0 71 C-0.66 70.67 -1.32 70.34 -2 70 C-2 69.01 -2 68.02 -2 67 C-2.66 67 -3.32 67 -4 67 C-4.33 65.35 -4.66 63.7 -5 62 C-5.66 62 -6.32 62 -7 62 C-7 60.68 -7 59.36 -7 58 C-9.59849832 60.32008779 -11.14818094 62.27592313 -12.8125 65.375 C-15.54039404 70.35823951 -19.43985771 74.23740443 -24.9375 75.875 C-25.618125 75.91625 -26.29875 75.9575 -27 76 C-27 76.66 -27 77.32 -27 78 C-33.96333755 81.48166878 -40.73411762 80.27786281 -47.86328125 77.99609375 C-50.78361728 76.63469395 -51.77004958 74.92113226 -53 72 C-53.66 71.67 -54.32 71.34 -55 71 C-55.33 70.01 -55.66 69.02 -56 68 C-56.66 67.67 -57.32 67.34 -58 67 C-58 66.34 -58 65.68 -58 65 C-58.66 65 -59.32 65 -60 65 C-60 64.01 -60 63.02 -60 62 C-60.66 62 -61.32 62 -62 62 C-62 60.35 -62 58.7 -62 57 C-62.66 57 -63.32 57 -64 57 C-65.95522544 51.25895955 -66.33516702 46.1055265 -66.3125 40.0625 C-66.32861328 39.20720703 -66.34472656 38.35191406 -66.36132812 37.47070312 C-66.36638401 30.84244086 -64.9763382 25.95267639 -62 20 C-61.34 20 -60.68 20 -60 20 C-59.67 17.36 -59.34 14.72 -59 12 C-58.34 12 -57.68 12 -57 12 C-57 11.34 -57 10.68 -57 10 C-52.61538462 7 -52.61538462 7 -50 7 C-50 6.34 -50 5.68 -50 5 C-48.35 4.67 -46.7 4.34 -45 4 C-45 3.34 -45 2.68 -45 2 C-39.06 2 -33.12 2 -27 2 C-27 2.66 -27 3.32 -27 4 C-26.12988281 4.185625 -26.12988281 4.185625 -25.2421875 4.375 C-19.37682977 5.9236093 -16.49545463 7.9461186 -13.15234375 13.01171875 C-10.74509248 17.16524721 -9.72419292 20.17337608 -10 25 C-9.01 25 -8.02 25 -7 25 C-7 24.01 -7 23.02 -7 22 C-6.34 22 -5.68 22 -5 22 C-4.938125 21.46375 -4.87625 20.9275 -4.8125 20.375 C-3.59964736 16.82973843 -1.55389074 14.7407608 1 12 C1.66 12 2.32 12 3 12 C3 11.34 3 10.68 3 10 C3.66 10 4.32 10 5 10 C5 9.34 5 8.68 5 8 C3.35 8 1.7 8 0 8 C-1.125 2.25 -1.125 2.25 0 0 Z " fill="#434343" transform="translate(371,113)"/>
<path d="M0 0 C0.68513672 -0.00386719 1.37027344 -0.00773437 2.07617188 -0.01171875 C7.1841133 -0.00169335 7.1841133 -0.00169335 9.4375 1.125 C9.4375 1.785 9.4375 2.445 9.4375 3.125 C10.4275 3.125 11.4175 3.125 12.4375 3.125 C12.9325 6.095 12.9325 6.095 13.4375 9.125 C14.7575 9.455 16.0775 9.785 17.4375 10.125 C17.4375 11.115 17.4375 12.105 17.4375 13.125 C18.0975 13.125 18.7575 13.125 19.4375 13.125 C19.4375 14.775 19.4375 16.425 19.4375 18.125 C20.0975 18.125 20.7575 18.125 21.4375 18.125 C23.99798537 23.00211499 23.73413998 27.76140201 23.6875 33.125 C23.69910156 34.45917969 23.69910156 34.45917969 23.7109375 35.8203125 C23.69741284 40.35107409 23.59386738 44.01763356 21.4375 48.125 C20.7775 48.125 20.1175 48.125 19.4375 48.125 C19.4375 49.775 19.4375 51.425 19.4375 53.125 C18.7775 53.125 18.1175 53.125 17.4375 53.125 C17.4375 54.775 17.4375 56.425 17.4375 58.125 C16.4475 58.125 15.4575 58.125 14.4375 58.125 C14.4375 58.785 14.4375 59.445 14.4375 60.125 C13.7775 60.125 13.1175 60.125 12.4375 60.125 C12.4375 60.785 12.4375 61.445 12.4375 62.125 C9.9625 62.62 9.9625 62.62 7.4375 63.125 C7.4375 63.785 7.4375 64.445 7.4375 65.125 C3.08125718 67.30312141 -0.78966951 67.62537739 -5.5625 67.125 C-8.5625 66.125 -8.5625 66.125 -10.5625 65.125 C-10.5625 64.465 -10.5625 63.805 -10.5625 63.125 C-12.2125 62.795 -13.8625 62.465 -15.5625 62.125 C-15.5625 61.465 -15.5625 60.805 -15.5625 60.125 C-16.2225 60.125 -16.8825 60.125 -17.5625 60.125 C-17.5625 59.465 -17.5625 58.805 -17.5625 58.125 C-18.5525 58.125 -19.5425 58.125 -20.5625 58.125 C-20.5625 56.475 -20.5625 54.825 -20.5625 53.125 C-21.2225 53.125 -21.8825 53.125 -22.5625 53.125 C-25.86730483 46.04699281 -25.92271102 39.85713959 -25.75 32.125 C-25.73646484 30.96871094 -25.72292969 29.81242187 -25.70898438 28.62109375 C-25.67387044 25.78856996 -25.62469 22.95703693 -25.5625 20.125 C-24.9025 20.125 -24.2425 20.125 -23.5625 20.125 C-23.2325 17.815 -22.9025 15.505 -22.5625 13.125 C-21.9025 13.125 -21.2425 13.125 -20.5625 13.125 C-20.500625 12.58875 -20.43875 12.0525 -20.375 11.5 C-19.16734114 7.96992025 -17.14861041 5.77125252 -14.5625 3.125 C-13.2425 3.125 -11.9225 3.125 -10.5625 3.125 C-10.5625 2.465 -10.5625 1.805 -10.5625 1.125 C-6.98556178 -0.06731274 -3.72067447 -0.0211202 0 0 Z " fill="#F5F5F5" transform="translate(336.5625,119.875)"/>
<path d="M0 0 C3.96 0 7.92 0 12 0 C12 15.51 12 31.02 12 47 C16.95 46.505 16.95 46.505 22 46 C22 45.34 22 44.68 22 44 C22.99 44 23.98 44 25 44 C25 43.34 25 42.68 25 42 C25.66 42 26.32 42 27 42 C27 41.01 27 40.02 27 39 C27.99 39 28.98 39 30 39 C30.33 37.35 30.66 35.7 31 34 C31.66 34 32.32 34 33 34 C33.33 32.35 33.66 30.7 34 29 C37.63 29 41.26 29 45 29 C45 32.3 45 35.6 45 39 C44.01 39 43.02 39 42 39 C41.814375 40.1446875 41.814375 40.1446875 41.625 41.3125 C41 44 41 44 39 47 C38.34 47 37.68 47 37 47 C37 48.65 37 50.3 37 52 C37.99 52 38.98 52 40 52 C40 52.66 40 53.32 40 54 C40.8971875 54.185625 40.8971875 54.185625 41.8125 54.375 C44 55 44 55 47 57 C47 57.66 47 58.32 47 59 C47.66 59 48.32 59 49 59 C49.495 62.96 49.495 62.96 50 67 C50.66 67 51.32 67 52 67 C54.4717719 72.7349016 54.26289786 78.18940045 54.1875 84.3125 C54.18685547 85.32634766 54.18621094 86.34019531 54.18554688 87.38476562 C54.14048812 94.85951188 54.14048812 94.85951188 53 96 C49.7 96 46.4 96 43 96 C43 88.74 43 81.48 43 74 C42.01 73.67 41.02 73.34 40 73 C40 71.68 40 70.36 40 69 C39.34 69 38.68 69 38 69 C37.67 67.35 37.34 65.7 37 64 C35.35 63.67 33.7 63.34 32 63 C32 62.34 32 61.68 32 61 C27.05 60.34 22.1 59.68 17 59 C17 59.66 17 60.32 17 61 C14.525 61.495 14.525 61.495 12 62 C12 73.55 12 85.1 12 97 C8.04 97 4.08 97 0 97 C0 64.99 0 32.98 0 0 Z " fill="#FE345B" transform="translate(439,96)"/>
<path d="M0 0 C1.86398438 0.00676758 1.86398438 0.00676758 3.765625 0.01367188 C6.8021045 0.02535064 9.83855886 0.04328202 12.875 0.0625 C12.875 4.0225 12.875 7.9825 12.875 12.0625 C10.16023438 12.08376953 10.16023438 12.08376953 7.390625 12.10546875 C4.96872563 12.15240478 2.54685142 12.20065193 0.125 12.25 C-1.06222656 12.25580078 -2.24945313 12.26160156 -3.47265625 12.26757812 C-11.78684146 12.4720253 -18.86435537 13.82675162 -26.125 18.0625 C-27.9480757 20.00055474 -28.90183431 21.67176707 -30.125 24.0625 C-30.785 24.0625 -31.445 24.0625 -32.125 24.0625 C-33.50884706 29.59788823 -33.68738914 35.37355877 -34.125 41.0625 C-21.915 41.0625 -9.705 41.0625 2.875 41.0625 C2.875 44.6925 2.875 48.3225 2.875 52.0625 C-9.335 52.0625 -21.545 52.0625 -34.125 52.0625 C-34.125 65.9225 -34.125 79.7825 -34.125 94.0625 C-38.415 94.0625 -42.705 94.0625 -47.125 94.0625 C-47.14764295 85.96921453 -47.16596821 77.87595392 -47.17681217 69.78264523 C-47.18201819 66.02411148 -47.1890742 62.26560064 -47.20043945 58.50708008 C-47.21134967 54.87608682 -47.217294 51.24511552 -47.21987724 47.61410713 C-47.22171688 46.23271909 -47.22530912 44.85133217 -47.23073006 43.46995354 C-47.23804849 41.52677469 -47.23840898 39.58357349 -47.23852539 37.64038086 C-47.240746 36.53673691 -47.24296661 35.43309296 -47.24525452 34.29600525 C-47.11628109 30.82805843 -46.67153225 27.4874501 -46.125 24.0625 C-45.135 24.0625 -44.145 24.0625 -43.125 24.0625 C-42.9703125 22.9796875 -42.9703125 22.9796875 -42.8125 21.875 C-42.05706053 18.78456579 -40.96968685 16.64506159 -39.125 14.0625 C-38.465 14.0625 -37.805 14.0625 -37.125 14.0625 C-37.05023438 13.30582031 -36.97546875 12.54914063 -36.8984375 11.76953125 C-35.91838028 8.33933098 -34.73229878 7.61755603 -31.75 5.75 C-30.95851563 5.23824219 -30.16703125 4.72648437 -29.3515625 4.19921875 C-27.125 3.0625 -27.125 3.0625 -24.125 3.0625 C-24.125 2.4025 -24.125 1.7425 -24.125 1.0625 C-16.07026218 0.03094464 -8.1118879 -0.05645318 0 0 Z " fill="#FE3058" transform="translate(111.125,98.9375)"/>
<path d="M0 0 C0.83466797 -0.01224609 1.66933594 -0.02449219 2.52929688 -0.03710938 C8.00671226 -0.04991705 12.67836442 0.64927884 17.9375 2.1875 C17.9375 2.8475 17.9375 3.5075 17.9375 4.1875 C20.2475 4.8475 22.5575 5.5075 24.9375 6.1875 C24.9375 7.1775 24.9375 8.1675 24.9375 9.1875 C25.5975 9.1875 26.2575 9.1875 26.9375 9.1875 C29.9375 13.57211538 29.9375 13.57211538 29.9375 16.1875 C30.5975 16.1875 31.2575 16.1875 31.9375 16.1875 C35.18674227 23.09205347 36.50919359 28.74677009 36.328125 36.3515625 C36.32246521 37.26964691 36.31680542 38.18773132 36.31097412 39.13363647 C36.28882475 42.0271523 36.23867171 44.91936711 36.1875 47.8125 C36.16740718 49.79034653 36.14916133 51.76821273 36.1328125 53.74609375 C36.08903075 58.56038678 36.02015631 63.37372389 35.9375 68.1875 C34.29175434 68.21438151 32.64588587 68.23384123 31 68.25 C30.08347656 68.26160156 29.16695312 68.27320313 28.22265625 68.28515625 C25.9375 68.1875 25.9375 68.1875 24.9375 67.1875 C24.80179459 64.38673874 24.72682473 61.60724118 24.69140625 58.8046875 C24.65844273 57.06249545 24.62523154 55.32030807 24.59179688 53.578125 C24.54454979 50.82653315 24.50017875 48.07495672 24.46069336 45.32324219 C24.42073283 42.6710114 24.3692197 40.01918926 24.31640625 37.3671875 C24.3079921 36.55337616 24.29957794 35.73956482 24.29090881 34.90109253 C24.18552734 29.98059098 23.49676251 25.86099848 21.9375 21.1875 C21.2775 21.1875 20.6175 21.1875 19.9375 21.1875 C19.9375 20.1975 19.9375 19.2075 19.9375 18.1875 C19.2775 18.1875 18.6175 18.1875 17.9375 18.1875 C17.9375 17.5275 17.9375 16.8675 17.9375 16.1875 C16.94169922 16.09662109 16.94169922 16.09662109 15.92578125 16.00390625 C15.04277344 15.92011719 14.15976563 15.83632812 13.25 15.75 C12.37988281 15.66878906 11.50976562 15.58757812 10.61328125 15.50390625 C8.03529359 15.19906391 5.48303705 14.69660741 2.9375 14.1875 C2.9375 32.3375 2.9375 50.4875 2.9375 69.1875 C-1.3525 69.1875 -5.6425 69.1875 -10.0625 69.1875 C-10.08505318 60.33867276 -10.10341634 51.48986448 -10.11431217 42.64101505 C-10.11954046 38.53255715 -10.12663713 34.42411986 -10.13793945 30.31567383 C-10.14877025 26.35403172 -10.15477724 22.39240948 -10.15737724 18.43075371 C-10.15923114 16.91601689 -10.1628511 15.40128121 -10.16823006 13.88655281 C-10.17544307 11.77208187 -10.17649083 9.65769406 -10.17602539 7.54321289 C-10.178246 6.33742081 -10.18046661 5.13162872 -10.18275452 3.88929749 C-9.92527593 -1.89555807 -4.56777444 0.00341644 0 0 Z " fill="#FE3259" transform="translate(204.0625,123.8125)"/>
<path d="M0 0 C3.96 0 7.92 0 12 0 C12 14.85 12 29.7 12 45 C12.99 45 13.98 45 15 45 C15 46.65 15 48.3 15 50 C15.66 50 16.32 50 17 50 C17.33 50.66 17.66 51.32 18 52 C20.02463255 52.65213292 20.02463255 52.65213292 22 53 C22 53.66 22 54.32 22 55 C26.29 55 30.58 55 35 55 C35.33 53.68 35.66 52.36 36 51 C37.375 49.25 37.375 49.25 39 48 C39.99 48 40.98 48 42 48 C42.33 32.16 42.66 16.32 43 0 C46.63 0 50.26 0 54 0 C54 14.85 54 29.7 54 45 C53.34 45 52.68 45 52 45 C52 48.3 52 51.6 52 55 C51.01 55 50.02 55 49 55 C48.814375 55.721875 48.62875 56.44375 48.4375 57.1875 C45.62173461 62.6966062 39.88644828 65.5652631 34.16015625 67.49609375 C26.35710697 69.3163349 19.39780189 67.64432067 12 65 C12 64.34 12 63.68 12 63 C11.34 63 10.68 63 10 63 C9.505 61.515 9.505 61.515 9 60 C8.34 59.67 7.68 59.34 7 59 C6.27306096 57.02111039 5.60183749 55.02045442 5 53 C4.34 53 3.68 53 3 53 C2.67 50.36 2.34 47.72 2 45 C1.34 45 0.68 45 0 45 C0 30.15 0 15.3 0 0 Z " fill="#FE3A60" transform="translate(127,125)"/>
<path d="M0 0 C3.96 0 7.92 0 12 0 C12 9.24 12 18.48 12 28 C17.61 28 23.22 28 29 28 C29 32.62 29 37.24 29 42 C23.39 42 17.78 42 12 42 C12.11374215 45.27158353 12.24049394 48.54176102 12.375 51.8125 C12.4059375 52.74126953 12.436875 53.67003906 12.46875 54.62695312 C12.50742187 55.51962891 12.54609375 56.41230469 12.5859375 57.33203125 C12.6173584 58.15421143 12.6487793 58.9763916 12.68115234 59.82348633 C12.88373622 62.28952937 12.88373622 62.28952937 15 65 C15 65.99 15 66.98 15 68 C16.175625 68.4640625 16.175625 68.4640625 17.375 68.9375 C20 70 20 70 22 71 C22 71.66 22 72.32 22 73 C26.95 73.33 31.9 73.66 37 74 C37.09765625 84.05859375 37.09765625 84.05859375 37 87 C35.3122094 88.6877906 33.24713215 88.21187677 30.9375 88.25 C25.61041493 88.22218232 21.82736925 87.18597853 17 85 C17 84.34 17 83.68 17 83 C16.46375 82.938125 15.9275 82.87625 15.375 82.8125 C11.89389948 81.62159719 9.33135401 79.80154305 7 77 C5.67995793 74.07038991 4.77368854 71.1151144 4 68 C3.34 68 2.68 68 2 68 C-0.3098129 60.67893211 -0.25729998 53.72697862 -0.1953125 46.09375 C-0.19157544 44.75997125 -0.18873175 43.42618972 -0.18673706 42.09240723 C-0.17915506 38.60717999 -0.15955436 35.1221234 -0.1373291 31.63696289 C-0.11675256 28.07049873 -0.10771027 24.5040066 -0.09765625 20.9375 C-0.07630243 13.9582568 -0.04116561 6.9791542 0 0 Z " fill="#FE4165" transform="translate(252,105)"/>
<path d="M0 0 C5.94 0 11.88 0 18 0 C18 0.66 18 1.32 18 2 C18.87011719 2.185625 18.87011719 2.185625 19.7578125 2.375 C25.62317023 3.9236093 28.50454537 5.9461186 31.84765625 11.01171875 C34.25490752 15.16524721 35.27580708 18.17337608 35 23 C35.99 23 36.98 23 38 23 C38 22.01 38 21.02 38 20 C38.66 20 39.32 20 40 20 C40.33 18.68 40.66 17.36 41 16 C42.32 15.67 43.64 15.34 45 15 C45 16.65 45 18.3 45 20 C44.34 20 43.68 20 43 20 C42.505 22.475 42.505 22.475 42 25 C41.34 25 40.68 25 40 25 C40 26.32 40 27.64 40 29 C44.62 29 49.24 29 54 29 C54 29.33 54 29.66 54 30 C48.72 30 43.44 30 38 30 C38.495 42.375 38.495 42.375 39 55 C37.68 55 36.36 55 35 55 C34.9175 55.680625 34.835 56.36125 34.75 57.0625 C32.95771377 64.08228775 28.98365663 69.04651258 23 73 C20.0625 73.875 20.0625 73.875 18 74 C18 74.66 18 75.32 18 76 C11.03666245 79.48166878 4.26588238 78.27786281 -2.86328125 75.99609375 C-5.78361728 74.63469395 -6.77004958 72.92113226 -8 70 C-8.66 69.67 -9.32 69.34 -10 69 C-10.33 68.01 -10.66 67.02 -11 66 C-11.66 65.67 -12.32 65.34 -13 65 C-13 64.34 -13 63.68 -13 63 C-13.66 63 -14.32 63 -15 63 C-15 62.01 -15 61.02 -15 60 C-15.66 60 -16.32 60 -17 60 C-17 58.35 -17 56.7 -17 55 C-17.66 55 -18.32 55 -19 55 C-20.95522544 49.25895955 -21.33516702 44.1055265 -21.3125 38.0625 C-21.32861328 37.20720703 -21.34472656 36.35191406 -21.36132812 35.47070312 C-21.36638401 28.84244086 -19.9763382 23.95267639 -17 18 C-16.34 18 -15.68 18 -15 18 C-14.67 15.36 -14.34 12.72 -14 10 C-13.34 10 -12.68 10 -12 10 C-12 9.34 -12 8.68 -12 8 C-7.61538462 5 -7.61538462 5 -5 5 C-5 4.34 -5 3.68 -5 3 C-3.35 2.67 -1.7 2.34 0 2 C0 1.34 0 0.68 0 0 Z M0 6 C0 6.66 0 7.32 0 8 C-1.0828125 8.061875 -1.0828125 8.061875 -2.1875 8.125 C-6.30925447 9.40732361 -7.53677499 11.48110713 -10 15 C-10 15.99 -10 16.98 -10 18 C-10.66 18 -11.32 18 -12 18 C-12.33 20.31 -12.66 22.62 -13 25 C-13.66 25 -14.32 25 -15 25 C-15.08783475 28.9998593 -15.14067102 32.99946704 -15.1875 37 C-15.21263672 38.12535156 -15.23777344 39.25070313 -15.26367188 40.41015625 C-15.32174801 47.03083534 -14.8105193 51.98062008 -12 58 C-11.34 58 -10.68 58 -10 58 C-10 59.65 -10 61.3 -10 63 C-9.01 63 -8.02 63 -7 63 C-7 63.66 -7 64.32 -7 65 C-6.34 65 -5.68 65 -5 65 C-5 65.66 -5 66.32 -5 67 C-3.35 67.33 -1.7 67.66 0 68 C0 68.66 0 69.32 0 70 C4.35624282 72.17812141 8.22716951 72.50037739 13 72 C15.88214887 71.11785113 15.88214887 71.11785113 18 70 C18 69.34 18 68.68 18 68 C20.475 67.505 20.475 67.505 23 67 C23 66.34 23 65.68 23 65 C23.66 65 24.32 65 25 65 C25 64.34 25 63.68 25 63 C25.99 63 26.98 63 28 63 C28 61.35 28 59.7 28 58 C28.66 58 29.32 58 30 58 C30 56.35 30 54.7 30 53 C30.66 53 31.32 53 32 53 C34.56048537 48.12288501 34.29663998 43.36359799 34.25 38 C34.25773437 37.11054688 34.26546875 36.22109375 34.2734375 35.3046875 C34.25991284 30.77392591 34.15636738 27.10736644 32 23 C31.34 23 30.68 23 30 23 C30 21.35 30 19.7 30 18 C29.34 18 28.68 18 28 18 C28 17.01 28 16.02 28 15 C26.68 14.67 25.36 14.34 24 14 C23.505 11.03 23.505 11.03 23 8 C22.01 8 21.02 8 20 8 C20 7.34 20 6.68 20 6 C16.98122735 4.49061368 13.86920415 4.85633563 10.5625 4.875 C9.5405957 4.86919922 9.5405957 4.86919922 8.49804688 4.86328125 C5.39351954 4.8693626 2.96670935 5.01109688 0 6 Z " fill="#414141" transform="translate(326,115)"/>
<path d="M0 0 C4.29 0 8.58 0 13 0 C13 5.61 13 11.22 13 17 C13.66 17 14.32 17 15 17 C15 18.32 15 19.64 15 21 C18.3 21.33 21.6 21.66 25 22 C25.33 21.01 25.66 20.02 26 19 C26.66 19 27.32 19 28 19 C28 18.34 28 17.68 28 17 C28.66 17 29.32 17 30 17 C29.67 11.39 29.34 5.78 29 0 C33.62 0 38.24 0 43 0 C43.0270491 3.06255961 43.04686298 6.1248786 43.0625 9.1875 C43.07087891 10.05181641 43.07925781 10.91613281 43.08789062 11.80664062 C43.10396812 16.00286769 43.07559038 19.90936886 42 24 C41.34 24 40.68 24 40 24 C40 24.99 40 25.98 40 27 C39.34 27 38.68 27 38 27 C38 27.66 38 28.32 38 29 C37.01 29 36.02 29 35 29 C34.67 30.65 34.34 32.3 34 34 C32.02 34.495 32.02 34.495 30 35 C30 35.66 30 36.32 30 37 C27.27022936 37.08126109 24.5428983 37.14061663 21.8125 37.1875 C20.65911133 37.22520508 20.65911133 37.22520508 19.48242188 37.26367188 C14.84739617 37.32335032 11.73229895 37.08905704 8 34 C8 33.34 8 32.68 8 32 C7.01 32 6.02 32 5 32 C5 31.01 5 30.02 5 29 C4.34 29 3.68 29 3 29 C-0.31484432 22.79662991 -0.36372414 17.50753869 -0.1875 10.5625 C-0.17396484 9.54478516 -0.16042969 8.52707031 -0.14648438 7.47851562 C-0.11137072 4.98544619 -0.05757194 2.49265193 0 0 Z " fill="#F5F5F5" transform="translate(366,146)"/>
<path d="M0 0 C1.32 0 2.64 0 4 0 C4 1.65 4 3.3 4 5 C-5.41002278 7.11161731 -5.41002278 7.11161731 -10 8 C-10 8.66 -10 9.32 -10 10 C-10.99 10 -11.98 10 -13 10 C-13 10.66 -13 11.32 -13 12 C-14.64488294 13.68816933 -16.31337542 15.35353315 -18 17 C-18.66 17.99 -19.32 18.98 -20 20 C-19.34 20 -18.68 20 -18 20 C-18 19.34 -18 18.68 -18 18 C-16.35 17.67 -14.7 17.34 -13 17 C-13 16.34 -13 15.68 -13 15 C-11.35 15 -9.7 15 -8 15 C-8 14.34 -8 13.68 -8 13 C-1.74827614 10.13035626 3.09647445 8.48862774 10 9 C10 9.99 10 10.98 10 12 C5.66296901 14.5346285 0.77838221 15.33258765 -4.06835938 16.41210938 C-8.24561501 17.39476276 -11.33137653 18.69644573 -15 21 C-15.99 21 -16.98 21 -18 21 C-18 21.66 -18 22.32 -18 23 C-18.66 23 -19.32 23 -20 23 C-20 23.66 -20 24.32 -20 25 C-20.5775 25.2475 -21.155 25.495 -21.75 25.75 C-24.3002997 27.16683317 -26.01785701 28.87627537 -28 31 C-27.01 31.33 -26.02 31.66 -25 32 C-25 31.34 -25 30.68 -25 30 C-24.01 30 -23.02 30 -22 30 C-22 29.34 -22 28.68 -22 28 C-20.68 28 -19.36 28 -18 28 C-18 27.34 -18 26.68 -18 26 C-13.5621439 24.88834768 -9.23043614 24.88472237 -4.6875 24.9375 C-3.94693359 24.94201172 -3.20636719 24.94652344 -2.44335938 24.95117188 C-0.62887101 24.96287825 1.18557534 24.98081102 3 25 C3 25.66 3 26.32 3 27 C-1.29 27 -5.58 27 -10 27 C-10 27.66 -10 28.32 -10 29 C-11.7015625 29.2165625 -11.7015625 29.2165625 -13.4375 29.4375 C-16.80777201 29.61171478 -16.80777201 29.61171478 -18 31 C-17.01 30.7525 -17.01 30.7525 -16 30.5 C-12.26900206 29.87816701 -8.78126622 29.93591074 -5 30 C-5 31.65 -5 33.3 -5 35 C-10.94 35 -16.88 35 -23 35 C-23 35.66 -23 36.32 -23 37 C-29.625 40 -29.625 40 -33 40 C-33 38.02 -33 36.04 -33 34 C-32.01 34 -31.02 34 -30 34 C-30 33.34 -30 32.68 -30 32 C-30.86625 32.495 -30.86625 32.495 -31.75 33 C-34 34 -34 34 -38 34 C-38 31.69 -38 29.38 -38 27 C-37.01 27 -36.02 27 -35 27 C-35 25.35 -35 23.7 -35 22 C-34.34 22 -33.68 22 -33 22 C-32.67 19.69 -32.34 17.38 -32 15 C-31.34 15 -30.68 15 -30 15 C-30 14.34 -30 13.68 -30 13 C-29.34 13 -28.68 13 -28 13 C-28 12.01 -28 11.02 -28 10 C-27.01 10 -26.02 10 -25 10 C-24.87625 9.401875 -24.7525 8.80375 -24.625 8.1875 C-24 6 -24 6 -22 3 C-20.68 3 -19.36 3 -18 3 C-18 3.99 -18 4.98 -18 6 C-18.66 6 -19.32 6 -20 6 C-20.433125 6.9590625 -20.433125 6.9590625 -20.875 7.9375 C-22 10 -22 10 -24 11 C-24.65213292 13.02463255 -24.65213292 13.02463255 -25 15 C-23.02463255 14.65213292 -23.02463255 14.65213292 -21 14 C-20.67 13.34 -20.34 12.68 -20 12 C-19.34 12 -18.68 12 -18 12 C-17.67 11.01 -17.34 10.02 -17 9 C-14.39757586 7.35179805 -13.13751221 7 -10 7 C-10 6.34 -10 5.68 -10 5 C-9.34 5 -8.68 5 -8 5 C-8 4.34 -8 3.68 -8 3 C-5.36 2.67 -2.72 2.34 0 2 C0 1.34 0 0.68 0 0 Z " fill="#F2F3F1" transform="translate(494,83)"/>
<path d="M0 0 C4.29 0 8.58 0 13 0 C13 0.66 13 1.32 13 2 C15.475 2.495 15.475 2.495 18 3 C18 3.66 18 4.32 18 5 C18.66 5 19.32 5 20 5 C20 5.99 20 6.98 20 8 C20.99 8 21.98 8 23 8 C23 8.66 23 9.32 23 10 C23.66 10 24.32 10 25 10 C25.495 13.96 25.495 13.96 26 18 C12.8 18 -0.4 18 -14 18 C-13 13 -13 13 -12 10 C-11.34 10 -10.68 10 -10 10 C-10 9.34 -10 8.68 -10 8 C-9.01 8 -8.02 8 -7 8 C-7 7.01 -7 6.02 -7 5 C-6.34 5 -5.68 5 -5 5 C-5 4.34 -5 3.68 -5 3 C-3.35 2.67 -1.7 2.34 0 2 C0 1.34 0 0.68 0 0 Z " fill="#F6F6F6" transform="translate(381,125)"/>
<path d="M0 0 C0.66 0 1.32 0 2 0 C2 3.96 2 7.92 2 12 C4.64 12 7.28 12 10 12 C10 11.01 10 10.02 10 9 C10.66 9 11.32 9 12 9 C12 7.02 12 5.04 12 3 C15 4 15 4 17 7 C17.22277192 9.81502705 17.32445221 12.49894994 17.3125 15.3125 C17.32861328 16.05951172 17.34472656 16.80652344 17.36132812 17.57617188 C17.36562239 22.46733556 16.58556018 25.70892519 14 30 C13.34 30 12.68 30 12 30 C12 30.66 12 31.32 12 32 C8.04 32 4.08 32 0 32 C-0.33 31.01 -0.66 30.02 -1 29 C-1.66 29 -2.32 29 -3 29 C-3 28.34 -3 27.68 -3 27 C-3.66 27 -4.32 27 -5 27 C-6.35911051 20.37433627 -6.70137504 13.59282829 -5 7 C-4.34 7 -3.68 7 -3 7 C-2.87625 6.401875 -2.7525 5.80375 -2.625 5.1875 C-2 3 -2 3 0 0 Z " fill="#121212" transform="translate(329,136)"/>
<path d="M0 0 C0.66 0 1.32 0 2 0 C2 1.65 2 3.3 2 5 C1.34 5 0.68 5 0 5 C-0.33 5.99 -0.66 6.98 -1 8 C-1.804375 8.78375 -2.60875 9.5675 -3.4375 10.375 C-5.92607784 12.92427486 -6.94781267 14.65213121 -8 18 C-8.66 18 -9.32 18 -10 18 C-10.12375 18.86625 -10.2475 19.7325 -10.375 20.625 C-10.98058121 23.89513853 -11.88306035 26.87256899 -13 30 C-12.01 30 -11.02 30 -10 30 C-9.87625 29.278125 -9.7525 28.55625 -9.625 27.8125 C-9.0095069 25.04278106 -8.11555626 22.6029646 -7 20 C-6.34 20 -5.68 20 -5 20 C-5 19.34 -5 18.68 -5 18 C-4.34 18 -3.68 18 -3 18 C-3 17.01 -3 16.02 -3 15 C-2.01 15 -1.02 15 0 15 C0.185625 14.278125 0.37125 13.55625 0.5625 12.8125 C2.49032722 9.04066414 5.21391719 6.87706637 9 5 C10.32 5 11.64 5 13 5 C13 5.99 13 6.98 13 8 C12.34 8 11.68 8 11 8 C11 8.66 11 9.32 11 10 C9.68 10 8.36 10 7 10 C6.731875 10.639375 6.46375 11.27875 6.1875 11.9375 C5 14 5 14 2 15 C2 15.99 2 16.98 2 18 C1.34 18 0.68 18 0 18 C0 18.66 0 19.32 0 20 C-0.66 20 -1.32 20 -2 20 C-2.99 22.475 -2.99 22.475 -4 25 C-4.66 25 -5.32 25 -6 25 C-6 25.99 -6 26.98 -6 28 C-6.66 28 -7.32 28 -8 28 C-8.12375 28.6909375 -8.2475 29.381875 -8.375 30.09375 C-9.3089316 34.43653193 -10.71823389 38.61326547 -12.0625 42.84375 C-12.86893456 45.55874635 -13.50117253 48.21487997 -14 51 C-14.33 51 -14.66 51 -15 51 C-15 49.02 -15 47.04 -15 45 C-15.99 45.495 -15.99 45.495 -17 46 C-17.40729228 48.32156597 -17.74438677 50.6568787 -18 53 C-19.953125 51.84765625 -19.953125 51.84765625 -22 50 C-22.609375 47.43359375 -22.609375 47.43359375 -22.75 44.4375 C-22.80285156 43.36628906 -22.85570312 42.29507813 -22.91015625 41.19140625 C-22.93980469 40.13824219 -22.96945313 39.08507812 -23 38 C-23.03996094 37.12214844 -23.07992187 36.24429688 -23.12109375 35.33984375 C-23.28309252 29.32683075 -22.3452373 23.84245395 -21 18 C-20.6621876 16.33423541 -20.32765478 14.66779232 -20 13 C-18.35 13 -16.7 13 -15 13 C-15.33 14.65 -15.66 16.3 -16 18 C-16.66 18 -17.32 18 -18 18 C-18 21.96 -18 25.92 -18 30 C-17.34 30 -16.68 30 -16 30 C-15.938125 29.05125 -15.87625 28.1025 -15.8125 27.125 C-15.10828237 21.92872751 -12.47950619 17.54728625 -10 13 C-9.34 13 -8.68 13 -8 13 C-8 12.01 -8 11.02 -8 10 C-7.34 10 -6.68 10 -6 10 C-5.67 8.35 -5.34 6.7 -5 5 C-4.34 5 -3.68 5 -3 5 C-2.690625 4.360625 -2.38125 3.72125 -2.0625 3.0625 C-1 1 -1 1 0 0 Z " fill="#F3F3F3" transform="translate(167,85)"/>
<path d="M0 0 C3.3 0 6.6 0 10 0 C10 0.66 10 1.32 10 2 C16.6 2 23.2 2 30 2 C30 2.99 30 3.98 30 5 C28.68 5.33 27.36 5.66 26 6 C26.33 7.32 26.66 8.64 27 10 C27.99 10 28.98 10 30 10 C32.6875 12.375 32.6875 12.375 35 15 C35 15.66 35 16.32 35 17 C35.66 17 36.32 17 37 17 C38.35439668 19.70879335 38.06501451 22.00933268 38 25 C37.01 25 36.02 25 35 25 C35 24.01 35 23.02 35 22 C34.34 22 33.68 22 33 22 C33 21.34 33 20.68 33 20 C32.01 20 31.02 20 30 20 C30 19.01 30 18.02 30 17 C29.34 17 28.68 17 28 17 C28 16.34 28 15.68 28 15 C25.525 14.505 25.525 14.505 23 14 C23 13.34 23 12.68 23 12 C18.71 12 14.42 12 10 12 C10 12.66 10 13.32 10 14 C8.35 14.33 6.7 14.66 5 15 C5 15.66 5 16.32 5 17 C4.34 17 3.68 17 3 17 C3 17.99 3 18.98 3 20 C2.01 20 1.02 20 0 20 C0 19.01 0 18.02 0 17 C-0.66 17 -1.32 17 -2 17 C-2 15 -2 15 -0.625 13.375 C1 12 1 12 3 12 C3 11.34 3 10.68 3 10 C3.66 10 4.32 10 5 10 C5 9.34 5 8.68 5 8 C3.35 8 1.7 8 0 8 C-1.125 2.25 -1.125 2.25 0 0 Z " fill="#232323" transform="translate(371,113)"/>
<path d="M0 0 C1.32 0.33 2.64 0.66 4 1 C7.05128582 10.91667892 6.26223172 20.81198684 5 31 C4.01 31 3.02 31 2 31 C1.814375 32.0828125 1.814375 32.0828125 1.625 33.1875 C1.0095069 35.95721894 0.11555626 38.3970354 -1 41 C-1.66 41 -2.32 41 -3 41 C-3 41.66 -3 42.32 -3 43 C-5.475 43.495 -5.475 43.495 -8 44 C-8 44.66 -8 45.32 -8 46 C-8.66 46 -9.32 46 -10 46 C-10 46.66 -10 47.32 -10 48 C-13.64117 49.66227326 -16.50290369 50.2724556 -20.5 50.25 C-21.4178125 50.25515625 -22.335625 50.2603125 -23.28125 50.265625 C-26.1778282 49.98262598 -28.36375653 49.20350245 -31 48 C-31 47.34 -31 46.68 -31 46 C-29.67935547 45.90912109 -29.67935547 45.90912109 -28.33203125 45.81640625 C-27.17058594 45.73261719 -26.00914062 45.64882812 -24.8125 45.5625 C-23.66394531 45.48128906 -22.51539063 45.40007812 -21.33203125 45.31640625 C-18.48401829 45.04596188 -15.78789518 44.62478253 -13 44 C-13 43.34 -13 42.68 -13 42 C-12.360625 41.7525 -11.72125 41.505 -11.0625 41.25 C-8.81258459 40.18437567 -8.81258459 40.18437567 -8.25 37.875 C-8.1675 37.25625 -8.085 36.6375 -8 36 C-7.01 36 -6.02 36 -5 36 C-5 35.34 -5 34.68 -5 34 C-4.34 34 -3.68 34 -3 34 C-3 33.01 -3 32.02 -3 31 C-2.34 31 -1.68 31 -1 31 C-1 29.35 -1 27.7 -1 26 C-0.34 26 0.32 26 1 26 C1 19.4 1 12.8 1 6 C0.34 5.67 -0.32 5.34 -1 5 C-0.67 3.35 -0.34 1.7 0 0 Z " fill="#3B3B3B" transform="translate(409,139)"/>
<path d="M0 0 C3.96 0 7.92 0 12 0 C12 15.51 12 31.02 12 47 C14.64 47 17.28 47 20 47 C20 47.66 20 48.32 20 49 C16.7 49 13.4 49 10 49 C10 33.49 10 17.98 10 2 C7.03 2 4.06 2 1 2 C1 32.69 1 63.38 1 95 C3.97 95 6.94 95 10 95 C10 84.77 10 74.54 10 64 C10.99 63.505 10.99 63.505 12 63 C12 74.22 12 85.44 12 97 C8.04 97 4.08 97 0 97 C0 64.99 0 32.98 0 0 Z " fill="#FE7A94" transform="translate(439,96)"/>
<path d="M0 0 C1.65 0 3.3 0 5 0 C5 0.66 5 1.32 5 2 C3.3203125 3.2890625 3.3203125 3.2890625 1.125 4.625 C0.40570313 5.07101563 -0.31359375 5.51703125 -1.0546875 5.9765625 C-3 7 -3 7 -5 7 C-5 7.66 -5 8.32 -5 9 C-5.639375 9.268125 -6.27875 9.53625 -6.9375 9.8125 C-9.33131686 10.88667752 -9.33131686 10.88667752 -10 14 C-9.319375 13.360625 -8.63875 12.72125 -7.9375 12.0625 C-4.53591161 9.6741507 -2.09566299 9.32122847 2 9 C2 9.66 2 10.32 2 11 C0.68 11.33 -0.64 11.66 -2 12 C-2 12.66 -2 13.32 -2 14 C1.3 14.33 4.6 14.66 8 15 C8 31.5 8 48 8 65 C7.34 65 6.68 65 6 65 C5.67 65.66 5.34 66.32 5 67 C5 65.35 5 63.7 5 62 C5.66 62 6.32 62 7 62 C7 47.15 7 32.3 7 17 C3.37 17 -0.26 17 -4 17 C-3.99476318 18.16982422 -3.98952637 19.33964844 -3.98413086 20.54492188 C-3.96593737 24.91340358 -3.95451583 29.28188198 -3.94506836 33.65039062 C-3.94006081 35.53581303 -3.93325285 37.4212316 -3.92456055 39.30664062 C-3.91233747 42.02735344 -3.90673576 44.7480146 -3.90234375 47.46875 C-3.89718246 48.30241089 -3.89202118 49.13607178 -3.88670349 49.99499512 C-3.88622286 55.08707816 -4.26870447 59.95937477 -5 65 C-5.66 65 -6.32 65 -7 65 C-6.93433838 64.12529053 -6.86867676 63.25058105 -6.80102539 62.34936523 C-6.08127508 52.25633762 -5.70289082 42.1765985 -5.4375 32.0625 C-5.39414616 30.49283117 -5.35052764 28.92316963 -5.30664062 27.35351562 C-5.2013908 23.56908705 -5.0996701 19.78457946 -5 16 C-6.98491642 16.26676204 -6.98491642 16.26676204 -9 17 C-9.33 17.99 -9.66 18.98 -10 20 C-12.5625 21.1875 -12.5625 21.1875 -15 22 C-15 22.99 -15 23.98 -15 25 C-15.66 25 -16.32 25 -17 25 C-17 25.66 -17 26.32 -17 27 C-17.66 27 -18.32 27 -19 27 C-18.33333333 24.33333333 -17.66666667 21.66666667 -17 19 C-16.85304687 18.319375 -16.70609375 17.63875 -16.5546875 16.9375 C-15.67003929 13.84746117 -13.91050744 11.54734325 -12 9 C-11.34 9 -10.68 9 -10 9 C-10 8.34 -10 7.68 -10 7 C-9.01 7 -8.02 7 -7 7 C-7 6.34 -7 5.68 -7 5 C-2.61538462 2 -2.61538462 2 0 2 C0 1.34 0 0.68 0 0 Z " fill="#FEC0CA" transform="translate(174,108)"/>
<path d="M0 0 C0.33 0 0.66 0 1 0 C1 1.65 1 3.3 1 5 C1.66 5 2.32 5 3 5 C3 5.99 3 6.98 3 8 C6.465 7.505 6.465 7.505 10 7 C10.33 4.69 10.66 2.38 11 0 C11.66 0 12.32 0 13 0 C13 1.65 13 3.3 13 5 C13.66 5 14.32 5 15 5 C15 9.29 15 13.58 15 18 C14.34 18 13.68 18 13 18 C13 18.66 13 19.32 13 20 C11.9375 21.625 11.9375 21.625 10 23 C6.27013478 23.26641894 3.55353929 23.1845131 0 22 C0 20.68 0 19.36 0 18 C-0.66 18 -1.32 18 -2 18 C-3.04350941 11.04746138 -3.46505172 6.2370931 0 0 Z " fill="#080808" transform="translate(381,145)"/>
<path d="M0 0 C1.32 0 2.64 0 4 0 C4 1.65 4 3.3 4 5 C-5.41002278 7.11161731 -5.41002278 7.11161731 -10 8 C-10 8.66 -10 9.32 -10 10 C-10.99 10 -11.98 10 -13 10 C-13 10.66 -13 11.32 -13 12 C-17.38461538 15 -17.38461538 15 -20 15 C-20 15.66 -20 16.32 -20 17 C-21.64488294 18.68816933 -23.31337542 20.35353315 -25 22 C-25.66 22.99 -26.32 23.98 -27 25 C-27.66 25 -28.32 25 -29 25 C-29.99 27.475 -29.99 27.475 -31 30 C-32.32 29.67 -33.64 29.34 -35 29 C-35 29.99 -35 30.98 -35 32 C-35.66 32 -36.32 32 -37 32 C-37 30.35 -37 28.7 -37 27 C-36.34 27 -35.68 27 -35 27 C-35 25.35 -35 23.7 -35 22 C-34.34 22 -33.68 22 -33 22 C-32.67 19.69 -32.34 17.38 -32 15 C-31.34 15 -30.68 15 -30 15 C-30 14.34 -30 13.68 -30 13 C-29.34 13 -28.68 13 -28 13 C-28 12.01 -28 11.02 -28 10 C-27.01 10 -26.02 10 -25 10 C-24.87625 9.401875 -24.7525 8.80375 -24.625 8.1875 C-24 6 -24 6 -22 3 C-20.68 3 -19.36 3 -18 3 C-18 3.99 -18 4.98 -18 6 C-18.66 6 -19.32 6 -20 6 C-20.433125 6.9590625 -20.433125 6.9590625 -20.875 7.9375 C-22 10 -22 10 -24 11 C-24.65213292 13.02463255 -24.65213292 13.02463255 -25 15 C-23.02463255 14.65213292 -23.02463255 14.65213292 -21 14 C-20.67 13.34 -20.34 12.68 -20 12 C-19.34 12 -18.68 12 -18 12 C-17.67 11.01 -17.34 10.02 -17 9 C-14.39757586 7.35179805 -13.13751221 7 -10 7 C-10 6.34 -10 5.68 -10 5 C-9.34 5 -8.68 5 -8 5 C-8 4.34 -8 3.68 -8 3 C-5.36 2.67 -2.72 2.34 0 2 C0 1.34 0 0.68 0 0 Z " fill="#DFE9EA" transform="translate(494,83)"/>
<path d="M0 0 C0.99 0 1.98 0 3 0 C2.67 22.77 2.34 45.54 2 69 C4.64 68.67 7.28 68.34 10 68 C10.33 55.79 10.66 43.58 11 31 C11.33 31 11.66 31 12 31 C12 43.87 12 56.74 12 70 C7.71 70 3.42 70 -1 70 C-1.02264295 61.90671453 -1.04096821 53.81345392 -1.05181217 45.72014523 C-1.05701819 41.96161148 -1.0640742 38.20310064 -1.07543945 34.44458008 C-1.08634967 30.81358682 -1.092294 27.18261552 -1.09487724 23.55160713 C-1.09671688 22.17021909 -1.10030912 20.78883217 -1.10573006 19.40745354 C-1.11304849 17.46427469 -1.11340898 15.52107349 -1.11352539 13.57788086 C-1.115746 12.47423691 -1.11796661 11.37059296 -1.12025452 10.23350525 C-0.99128109 6.76555843 -0.54653225 3.4249501 0 0 Z " fill="#FD7992" transform="translate(65,123)"/>
<path d="M0 0 C1.18613892 0.00785522 1.18613892 0.00785522 2.39624023 0.01586914 C3.67724609 0.02070312 3.67724609 0.02070312 4.98413086 0.02563477 C5.88196289 0.03401367 6.77979492 0.04239258 7.70483398 0.05102539 C8.6065332 0.05553711 9.50823242 0.06004883 10.43725586 0.06469727 C12.67234712 0.07652315 14.90730835 0.09300319 17.14233398 0.11352539 C17.14233398 0.44352539 17.14233398 0.77352539 17.14233398 1.11352539 C11.20233398 1.11352539 5.26233398 1.11352539 -0.85766602 1.11352539 C-0.85766602 22.89352539 -0.85766602 44.67352539 -0.85766602 67.11352539 C2.44233398 67.11352539 5.74233398 67.11352539 9.14233398 67.11352539 C9.14233398 48.96352539 9.14233398 30.81352539 9.14233398 12.11352539 C11.78233398 12.11352539 14.42233398 12.11352539 17.14233398 12.11352539 C17.14233398 12.77352539 17.14233398 13.43352539 17.14233398 14.11352539 C18.79233398 14.11352539 20.44233398 14.11352539 22.14233398 14.11352539 C22.14233398 14.77352539 22.14233398 15.43352539 22.14233398 16.11352539 C16.20233398 15.12352539 16.20233398 15.12352539 10.14233398 14.11352539 C10.14233398 32.26352539 10.14233398 50.41352539 10.14233398 69.11352539 C5.85233398 69.11352539 1.56233398 69.11352539 -2.85766602 69.11352539 C-2.8802192 60.26469815 -2.89858235 51.41588987 -2.90947819 42.56704044 C-2.91470648 38.45858254 -2.92180314 34.35014525 -2.93310547 30.24169922 C-2.94393627 26.28005711 -2.94994326 22.31843487 -2.95254326 18.3567791 C-2.95439716 16.84204228 -2.95801711 15.3273066 -2.96339607 13.8125782 C-2.97060909 11.69810726 -2.97165685 9.58371945 -2.97119141 7.46923828 C-2.97341202 6.2634462 -2.97563263 5.05765411 -2.97792053 3.81532288 C-2.81576299 0.17207646 -2.81576299 0.17207646 0 0 Z " fill="#FE869C" transform="translate(196.857666015625,123.886474609375)"/>
<path d="M0 0 C0.99 0 1.98 0 3 0 C3 1.65 3 3.3 3 5 C2.34 5 1.68 5 1 5 C0.67 6.65 0.34 8.3 0 10 C-0.66 10 -1.32 10 -2 10 C-2 11.32 -2 12.64 -2 14 C2.62 14 7.24 14 12 14 C12 14.33 12 14.66 12 15 C6.72 15 1.44 15 -4 15 C-3.67 23.25 -3.34 31.5 -3 40 C-4.32 40 -5.64 40 -7 40 C-7.495 42.475 -7.495 42.475 -8 45 C-8.66 45 -9.32 45 -10 45 C-10.33 45.66 -10.66 46.32 -11 47 C-11.66 47 -12.32 47 -13 47 C-13 46.34 -13 45.68 -13 45 C-12.34 45 -11.68 45 -11 45 C-11 43.35 -11 41.7 -11 40 C-10.34 40 -9.68 40 -9 40 C-9 28.78 -9 17.56 -9 6 C-9.66 6 -10.32 6 -11 6 C-10.67 4.35 -10.34 2.7 -10 1 C-7 4.625 -7 4.625 -7 8 C-6.01 8 -5.02 8 -4 8 C-4 7.01 -4 6.02 -4 5 C-3.34 5 -2.68 5 -2 5 C-1.855625 4.360625 -1.71125 3.72125 -1.5625 3.0625 C-1 1 -1 1 0 0 Z " fill="#111111" transform="translate(368,130)"/>
<path d="M0 0 C3.3 0 6.6 0 10 0 C10 0.66 10 1.32 10 2 C16.6 2 23.2 2 30 2 C30 2.99 30 3.98 30 5 C28.68 5.33 27.36 5.66 26 6 C26.33 7.32 26.66 8.64 27 10 C26.34 10 25.68 10 25 10 C25 9.34 25 8.68 25 8 C19.39 8 13.78 8 8 8 C8 8.66 8 9.32 8 10 C7.01 10 6.02 10 5 10 C5 9.34 5 8.68 5 8 C3.35 8 1.7 8 0 8 C-1.125 2.25 -1.125 2.25 0 0 Z " fill="#020202" transform="translate(371,113)"/>
<path d="M0 0 C0 2 0 4 0 6 C-0.99 6 -1.98 6 -3 6 C-3 6.66 -3 7.32 -3 8 C-0.69 8 1.62 8 4 8 C4 8.99 4 9.98 4 11 C4.99 11 5.98 11 7 11 C7 12.32 7 13.64 7 15 C5.35 15 3.7 15 2 15 C2.33 13.02 2.66 11.04 3 9 C-7.395 9.495 -7.395 9.495 -18 10 C-18 10.66 -18 11.32 -18 12 C-19.32 12 -20.64 12 -22 12 C-22 12.66 -22 13.32 -22 14 C-22.99 14 -23.98 14 -25 14 C-25 14.66 -25 15.32 -25 16 C-26.32 15.67 -27.64 15.34 -29 15 C-28.38125 14.7525 -27.7625 14.505 -27.125 14.25 C-24.64931313 12.79371361 -24.04874998 11.62187494 -23 9 C-22.01 9 -21.02 9 -20 9 C-20 8.34 -20 7.68 -20 7 C-19.34 7 -18.68 7 -18 7 C-18 6.34 -18 5.68 -18 5 C-16.23002526 4.18563132 -14.45898848 3.3735706 -12.6875 2.5625 C-11.70136719 2.11003906 -10.71523438 1.65757813 -9.69921875 1.19140625 C-5.91942643 -0.4769536 -3.94996412 -1.22585093 0 0 Z " fill="#FCF8F9" transform="translate(494,99)"/>
<path d="M0 0 C0.33 0 0.66 0 1 0 C1 1.65 1 3.3 1 5 C0.34 5 -0.32 5 -1 5 C-0.979375 5.804375 -0.95875 6.60875 -0.9375 7.4375 C-1 10 -1 10 -2 11 C-1.01 10.67 -0.02 10.34 1 10 C0.5106105 14.24137565 -2.00498263 17.14977991 -5 20 C-10.70552147 24 -10.70552147 24 -14 24 C-14 24.66 -14 25.32 -14 26 C-21.28504785 29.64252393 -27.73430115 28.05028758 -35.09375 25.65625 C-35.7228125 25.4396875 -36.351875 25.223125 -37 25 C-37 24.34 -37 23.68 -37 23 C-30.4 23.66 -23.8 24.32 -17 25 C-17 24.34 -17 23.68 -17 23 C-20.96 23 -24.92 23 -29 23 C-29 22.34 -29 21.68 -29 21 C-28.00419922 21.01740234 -28.00419922 21.01740234 -26.98828125 21.03515625 C-20.43693213 21.11893409 -20.43693213 21.11893409 -14 20 C-14 19.34 -14 18.68 -14 18 C-12.35 17.67 -10.7 17.34 -9 17 C-9 16.34 -9 15.68 -9 15 C-8.34 15 -7.68 15 -7 15 C-7 14.34 -7 13.68 -7 13 C-6.01 13 -5.02 13 -4 13 C-4 11.35 -4 9.7 -4 8 C-3.34 8 -2.68 8 -2 8 C-2 6.35 -2 4.7 -2 3 C-1.34 3 -0.68 3 0 3 C0 2.01 0 1.02 0 0 Z " fill="#525252" transform="translate(358,165)"/>
<path d="M0 0 C5.94 0 11.88 0 18 0 C18 0.66 18 1.32 18 2 C18.87011719 2.185625 18.87011719 2.185625 19.7578125 2.375 C25.53753697 3.90099986 28.51919726 5.88051668 31.84765625 10.859375 C33.46892385 13.87108565 34.30326613 16.65567744 35 20 C34.01 19.34 33.02 18.68 32 18 C31.505 19.485 31.505 19.485 31 21 C31.66 21 32.32 21 33 21 C32.67 22.32 32.34 23.64 32 25 C32 24.34 32 23.68 32 23 C31.34 23 30.68 23 30 23 C30 21.35 30 19.7 30 18 C29.34 18 28.68 18 28 18 C28 17.01 28 16.02 28 15 C26.68 14.67 25.36 14.34 24 14 C23.67 12.02 23.34 10.04 23 8 C22.01 8 21.02 8 20 8 C20 7.34 20 6.68 20 6 C14.39 5.67 8.78 5.34 3 5 C5 3 5 3 7.3828125 2.8046875 C8.28773438 2.82789062 9.19265625 2.85109375 10.125 2.875 C11.49011719 2.90207031 11.49011719 2.90207031 12.8828125 2.9296875 C13.58148438 2.95289062 14.28015625 2.97609375 15 3 C15 2.34 15 1.68 15 1 C10.71 1 6.42 1 2 1 C2 1.66 2 2.32 2 3 C0.68 2.67 -0.64 2.34 -2 2 C-1.34 2 -0.68 2 0 2 C0 1.34 0 0.68 0 0 Z " fill="#424242" transform="translate(326,115)"/>
<path d="M0 0 C2.31 0 4.62 0 7 0 C7 1.32 7 2.64 7 4 C8.98 3.67 10.96 3.34 13 3 C12.67 4.32 12.34 5.64 12 7 C12 6.34 12 5.68 12 5 C10.35 5 8.7 5 7 5 C7 5.66 7 6.32 7 7 C2.61538462 10 2.61538462 10 0 10 C0 10.66 0 11.32 0 12 C-0.99 12 -1.98 12 -3 12 C-3 12.66 -3 13.32 -3 14 C-3.66 14 -4.32 14 -5 14 C-5.268125 14.53625 -5.53625 15.0725 -5.8125 15.625 C-7.20833333 18.41666667 -8.60416667 21.20833333 -10 24 C-9.34 24.33 -8.68 24.66 -8 25 C-8.66 25 -9.32 25 -10 25 C-10.12375 25.78375 -10.2475 26.5675 -10.375 27.375 C-11 30 -11 30 -13 32 C-14.49454468 28.10656832 -13.45247802 25.42895226 -12.1875 21.5625 C-11.83042969 20.45003906 -11.47335938 19.33757812 -11.10546875 18.19140625 C-10.14630044 15.42235853 -9.11857736 12.70786827 -8 10 C-7.34 10 -6.68 10 -6 10 C-6 9.01 -6 8.02 -6 7 C-5.34 7 -4.68 7 -4 7 C-3.34 5.35 -2.68 3.7 -2 2 C-1.34 2 -0.68 2 0 2 C0 1.34 0 0.68 0 0 Z " fill="#F2F4F5" transform="translate(167,103)"/>
<path d="M0 0 C1.53333984 -0.00193359 1.53333984 -0.00193359 3.09765625 -0.00390625 C4.16886719 -0.00003906 5.24007813 0.00382812 6.34375 0.0078125 C7.95056641 0.00201172 7.95056641 0.00201172 9.58984375 -0.00390625 C11.12318359 -0.00197266 11.12318359 -0.00197266 12.6875 0 C13.62787109 0.00112793 14.56824219 0.00225586 15.53710938 0.00341797 C17.84375 0.1328125 17.84375 0.1328125 19.84375 1.1328125 C19.84375 1.7928125 19.84375 2.4528125 19.84375 3.1328125 C20.83375 3.1328125 21.82375 3.1328125 22.84375 3.1328125 C22.84375 5.1128125 22.84375 7.0928125 22.84375 9.1328125 C19.5306104 10.17408495 18.24176692 10.31855373 15.03125 8.8203125 C14.309375 8.2634375 13.5875 7.7065625 12.84375 7.1328125 C12.84375 6.4728125 12.84375 5.8128125 12.84375 5.1328125 C0.17851115 4.73545848 0.17851115 4.73545848 -12.15625 7.1328125 C-12.15625 6.4728125 -12.15625 5.8128125 -12.15625 5.1328125 C-11.49625 5.1328125 -10.83625 5.1328125 -10.15625 5.1328125 C-10.15625 4.4728125 -10.15625 3.8128125 -10.15625 3.1328125 C-9.16625 3.1328125 -8.17625 3.1328125 -7.15625 3.1328125 C-7.15625 2.4728125 -7.15625 1.8128125 -7.15625 1.1328125 C-4.62178127 -0.13442187 -2.83398046 0.00339922 0 0 Z " fill="#101010" transform="translate(331.15625,94.8671875)"/>
<path d="M0 0 C0.74056641 0.00451172 1.48113281 0.00902344 2.24414062 0.01367188 C4.05862899 0.02537825 5.87307534 0.04331102 7.6875 0.0625 C7.6875 0.7225 7.6875 1.3825 7.6875 2.0625 C3.3975 2.0625 -0.8925 2.0625 -5.3125 2.0625 C-5.3125 2.7225 -5.3125 3.3825 -5.3125 4.0625 C-7.0140625 4.2790625 -7.0140625 4.2790625 -8.75 4.5 C-12.12027201 4.67421478 -12.12027201 4.67421478 -13.3125 6.0625 C-12.6525 5.8975 -11.9925 5.7325 -11.3125 5.5625 C-7.58150206 4.94066701 -4.09376622 4.99841074 -0.3125 5.0625 C-0.3125 6.7125 -0.3125 8.3625 -0.3125 10.0625 C-6.2525 10.0625 -12.1925 10.0625 -18.3125 10.0625 C-18.3125 10.7225 -18.3125 11.3825 -18.3125 12.0625 C-20.6225 12.0625 -22.9325 12.0625 -25.3125 12.0625 C-24.6525 11.7325 -23.9925 11.4025 -23.3125 11.0625 C-23.3125 9.7425 -23.3125 8.4225 -23.3125 7.0625 C-22.3225 7.0625 -21.3325 7.0625 -20.3125 7.0625 C-20.3125 6.4025 -20.3125 5.7425 -20.3125 5.0625 C-19.3225 5.0625 -18.3325 5.0625 -17.3125 5.0625 C-17.3125 4.4025 -17.3125 3.7425 -17.3125 3.0625 C-15.9925 3.0625 -14.6725 3.0625 -13.3125 3.0625 C-13.3125 2.4025 -13.3125 1.7425 -13.3125 1.0625 C-8.8746439 -0.04915232 -4.54293614 -0.05277763 0 0 Z " fill="#FAF2D3" transform="translate(489.3125,107.9375)"/>
<path d="M0 0 C0.33 0 0.66 0 1 0 C1.50559908 1.43554025 2.0042749 2.8735202 2.5 4.3125 C2.7784375 5.11300781 3.056875 5.91351563 3.34375 6.73828125 C4 9 4 9 4 12 C4.66 12 5.32 12 6 12 C6 12.99 6 13.98 6 15 C6.99 15 7.98 15 9 15 C9 15.66 9 16.32 9 17 C13.21865028 19.01512227 17.20885432 19.41354068 21.8125 19.625 C22.85180664 19.68300781 22.85180664 19.68300781 23.91210938 19.7421875 C25.60767015 19.83573568 27.30379712 19.91892364 29 20 C25.36804504 22.42130331 23.61650652 22.21022785 19.3125 22.125 C18.13300781 22.10695312 16.95351563 22.08890625 15.73828125 22.0703125 C14.83464844 22.04710937 13.93101562 22.02390625 13 22 C13 22.66 13 23.32 13 24 C16.99795892 24.95619733 20.70803922 25.1039592 24.8125 25.0625 C26.55466797 25.04896484 26.55466797 25.04896484 28.33203125 25.03515625 C29.21246094 25.02355469 30.09289062 25.01195312 31 25 C31 25.66 31 26.32 31 27 C25.39 27 19.78 27 14 27 C14 26.34 14 25.68 14 25 C12.68 25 11.36 25 10 25 C7.875 23.0625 7.875 23.0625 6 21 C5.34 20.67 4.68 20.34 4 20 C4 19.01 4 18.02 4 17 C3.34 17 2.68 17 2 17 C1.67 15.35 1.34 13.7 1 12 C0.34 12 -0.32 12 -1 12 C-1 10.68 -1 9.36 -1 8 C-1.99 8.33 -2.98 8.66 -4 9 C-4 8.34 -4 7.68 -4 7 C-2.68 7 -1.36 7 0 7 C0 4.69 0 2.38 0 0 Z " fill="#252525" transform="translate(365,163)"/>
<path d="M0 0 C1.051875 -0.00386719 1.051875 -0.00386719 2.125 -0.0078125 C4 0.125 4 0.125 6 1.125 C6 2.115 6 3.105 6 4.125 C6.99 4.125 7.98 4.125 9 4.125 C9 4.785 9 5.445 9 6.125 C8.34 6.125 7.68 6.125 7 6.125 C6.67 7.775 6.34 9.425 6 11.125 C5.34 11.125 4.68 11.125 4 11.125 C4 12.115 4 13.105 4 14.125 C0.71303767 14.92453138 -0.71023192 15.22158936 -4 14.125 C-4.19573608 12.68859829 -4.38127816 11.25080496 -4.5625 9.8125 C-4.66691406 9.01199219 -4.77132813 8.21148437 -4.87890625 7.38671875 C-5 5.125 -5 5.125 -4 2.125 C-4.66 1.795 -5.32 1.465 -6 1.125 C-3.75487738 0.00243869 -2.48543351 -0.00913762 0 0 Z " fill="#EFEFEF" transform="translate(335,133.875)"/>
<path d="M0 0 C4.39656173 -0.02465504 8.7930872 -0.04283842 13.18969727 -0.05493164 C14.68644918 -0.05997121 16.18319616 -0.06680287 17.67993164 -0.07543945 C19.82699807 -0.08752159 21.97399962 -0.09323191 24.12109375 -0.09765625 C26.06133423 -0.10551147 26.06133423 -0.10551147 28.04077148 -0.11352539 C31 0 31 0 32 1 C32.07258946 3.18639453 32.08373783 5.37500389 32.0625 7.5625 C32.05347656 8.76003906 32.04445312 9.95757812 32.03515625 11.19140625 C32.02355469 12.11824219 32.01195312 13.04507813 32 14 C29.43095838 15.28452081 27.49140502 15.17634031 24.6171875 15.24609375 C23.53179687 15.27896484 22.44640625 15.31183594 21.328125 15.34570312 C19.04956402 15.40627573 16.77091509 15.46363596 14.4921875 15.51757812 C3.71668911 15.77873579 3.71668911 15.77873579 -6 20 C-8.1875 19.625 -8.1875 19.625 -10 19 C-0.99211254 13.08857386 6.44737662 12.59520733 17 12.8125 C18.25167969 12.82603516 19.50335938 12.83957031 20.79296875 12.85351562 C23.86216637 12.88865911 26.93114058 12.94245889 30 13 C30 9.04 30 5.08 30 1 C20.1 1.33 10.2 1.66 0 2 C0 1.34 0 0.68 0 0 Z " fill="#FEA0B2" transform="translate(94,98)"/>
<path d="M0 0 C0.66 0 1.32 0 2 0 C2 1.65 2 3.3 2 5 C1.34 5 0.68 5 0 5 C-0.33 5.99 -0.66 6.98 -1 8 C-1.804375 8.78375 -2.60875 9.5675 -3.4375 10.375 C-5.92607784 12.92427486 -6.94781267 14.65213121 -8 18 C-8.66 18 -9.32 18 -10 18 C-10.103125 18.845625 -10.20625 19.69125 -10.3125 20.5625 C-11 24 -11 24 -12.5 27.3125 C-14.23978868 31.58948051 -14.69951512 35.43055755 -15 40 C-16.485 40.495 -16.485 40.495 -18 41 C-18 37.37 -18 33.74 -18 30 C-17.34 30 -16.68 30 -16 30 C-15.9071875 28.576875 -15.9071875 28.576875 -15.8125 27.125 C-15.10828237 21.92872751 -12.47950619 17.54728625 -10 13 C-9.34 13 -8.68 13 -8 13 C-8 12.01 -8 11.02 -8 10 C-7.34 10 -6.68 10 -6 10 C-5.67 8.35 -5.34 6.7 -5 5 C-4.34 5 -3.68 5 -3 5 C-2.690625 4.360625 -2.38125 3.72125 -2.0625 3.0625 C-1 1 -1 1 0 0 Z " fill="#AFDECC" transform="translate(167,85)"/>
<path d="M0 0 C1.65 0 3.3 0 5 0 C5 0.66 5 1.32 5 2 C3.3203125 3.2890625 3.3203125 3.2890625 1.125 4.625 C0.40570313 5.07101563 -0.31359375 5.51703125 -1.0546875 5.9765625 C-3 7 -3 7 -5 7 C-5 7.66 -5 8.32 -5 9 C-5.639375 9.2475 -6.27875 9.495 -6.9375 9.75 C-9.18741541 10.81562433 -9.18741541 10.81562433 -9.75 13.125 C-9.8325 13.74375 -9.915 14.3625 -10 15 C-9.01 15.66 -8.02 16.32 -7 17 C-7.66 17 -8.32 17 -9 17 C-9.33 17.99 -9.66 18.98 -10 20 C-12.5625 21.1875 -12.5625 21.1875 -15 22 C-15 22.99 -15 23.98 -15 25 C-15.66 25 -16.32 25 -17 25 C-17 25.66 -17 26.32 -17 27 C-17.66 27 -18.32 27 -19 27 C-18.33333333 24.33333333 -17.66666667 21.66666667 -17 19 C-16.85304687 18.319375 -16.70609375 17.63875 -16.5546875 16.9375 C-15.67003929 13.84746117 -13.91050744 11.54734325 -12 9 C-11.34 9 -10.68 9 -10 9 C-10 8.34 -10 7.68 -10 7 C-9.01 7 -8.02 7 -7 7 C-7 6.34 -7 5.68 -7 5 C-2.61538462 2 -2.61538462 2 0 2 C0 1.34 0 0.68 0 0 Z " fill="#FAF1CF" transform="translate(174,108)"/>
<path d="M0 0 C0.66 0 1.32 0 2 0 C2 1.65 2 3.3 2 5 C2.99 5 3.98 5 5 5 C5 5.66 5 6.32 5 7 C5.66 7 6.32 7 7 7 C7 7.66 7 8.32 7 9 C8.65 9.33 10.3 9.66 12 10 C12 10.66 12 11.32 12 12 C12.99 12 13.98 12 15 12 C15 12.99 15 13.98 15 15 C18.96 15 22.92 15 27 15 C27 15.66 27 16.32 27 17 C18.04977687 17.36837809 11.33593429 17.28365187 3.5625 12.5 C2 11 2 11 1 8 C0.34 7.67 -0.32 7.34 -1 7 C-1 6.34 -1 5.68 -1 5 C-1.66 5 -2.32 5 -3 5 C-3 4.01 -3 3.02 -3 2 C-2.01 2 -1.02 2 0 2 C0 1.34 0 0.68 0 0 Z " fill="#222222" transform="translate(314,173)"/>
<path d="M0 0 C0.66 0 1.32 0 2 0 C2 1.65 2 3.3 2 5 C2.99 5.33 3.98 5.66 5 6 C5 20.52 5 35.04 5 50 C0.71 50 -3.58 50 -8 50 C-7.67 49.34 -7.34 48.68 -7 48 C-3.7 48.33 -0.4 48.66 3 49 C2.90611124 43.14645548 2.79993927 37.29330737 2.68261719 31.44018555 C2.64444739 29.450989 2.60957402 27.46172626 2.578125 25.47241211 C2.53221303 22.6050661 2.47426253 19.73817112 2.4140625 16.87109375 C2.40251129 15.98852402 2.39096008 15.10595428 2.37905884 14.19664001 C2.258773 9.10942707 1.63074824 4.8264426 0 0 Z " fill="#FEACBC" transform="translate(237,143)"/>
<path d="M0 0 C0.33 0 0.66 0 1 0 C1 5.61 1 11.22 1 17 C1.66 17 2.32 17 3 17 C3 19.64 3 22.28 3 25 C3.66 25 4.32 25 5 25 C4.835 23.9275 4.67 22.855 4.5 21.75 C2.67735849 6.98396226 2.67735849 6.98396226 6 2 C6.01981934 2.57967529 6.03963867 3.15935059 6.06005859 3.7565918 C6.15572601 6.40065937 6.26523453 9.0439817 6.375 11.6875 C6.4059375 12.59951172 6.436875 13.51152344 6.46875 14.45117188 C6.67035741 19.07134161 6.98027415 22.76509095 9 27 C9.125 29.8125 9.125 29.8125 9 32 C7.35 32 5.7 32 4 32 C4 30.35 4 28.7 4 27 C3.34 27 2.68 27 2 27 C-0.06189931 21.08218663 -0.24167838 15.79581786 -0.125 9.5625 C-0.11597656 8.64017578 -0.10695313 7.71785156 -0.09765625 6.76757812 C-0.0742766 4.51144191 -0.04150916 2.25586316 0 0 Z " fill="#4C4C4C" transform="translate(305,143)"/>
<path d="M0 0 C0.66 0 1.32 0 2 0 C1.67 1.65 1.34 3.3 1 5 C12.55 5.33 24.1 5.66 36 6 C35.505 3.03 35.505 3.03 35 0 C35.66 0 36.32 0 37 0 C37.495 3.96 37.495 3.96 38 8 C24.8 8 11.6 8 -2 8 C-1 3 -1 3 0 0 Z " fill="#B2B2B2" transform="translate(369,135)"/>
<path d="M0 0 C0.66 0 1.32 0 2 0 C1.88207014 5.67845532 1.75784597 11.35672395 1.62768555 17.03491211 C1.58426959 18.96814185 1.54259958 20.90141159 1.50268555 22.8347168 C1.44514369 25.60738202 1.3814038 28.37984457 1.31640625 31.15234375 C1.29133751 32.45702858 1.29133751 32.45702858 1.26576233 33.78807068 C1.11387171 39.88612829 1.11387171 39.88612829 0 41 C-2.67058851 41.14115161 -5.32432238 41.04247107 -8 41 C-8 40.34 -8 39.68 -8 39 C-5.69 39 -3.38 39 -1 39 C-1.00523682 37.854104 -1.01047363 36.70820801 -1.01586914 35.52758789 C-1.03391717 31.29159318 -1.04543128 27.05560188 -1.05493164 22.81958008 C-1.05997231 20.98331125 -1.06680477 19.14704646 -1.07543945 17.31079102 C-1.08751672 14.67723599 -1.09323081 12.04373384 -1.09765625 9.41015625 C-1.10281754 8.58411392 -1.10797882 7.75807159 -1.11329651 6.90699768 C-1.11349205 4.93763632 -1.06204152 2.96838386 -1 1 C-0.67 0.67 -0.34 0.34 0 0 Z " fill="#FD486B" transform="translate(75,151)"/>
<path d="M0 0 C1.32 0 2.64 0 4 0 C4 1.65 4 3.3 4 5 C-5.41002278 7.11161731 -5.41002278 7.11161731 -10 8 C-10 8.66 -10 9.32 -10 10 C-10.99 10 -11.98 10 -13 10 C-13 10.66 -13 11.32 -13 12 C-17.38461538 15 -17.38461538 15 -20 15 C-20 15.66 -20 16.32 -20 17 C-20.99 17 -21.98 17 -23 17 C-23 15 -23 15 -21.625 13.375 C-20 12 -20 12 -18 12 C-17.67 11.01 -17.34 10.02 -17 9 C-14.39757586 7.35179805 -13.13751221 7 -10 7 C-10 6.34 -10 5.68 -10 5 C-9.34 5 -8.68 5 -8 5 C-8 4.34 -8 3.68 -8 3 C-5.36 2.67 -2.72 2.34 0 2 C0 1.34 0 0.68 0 0 Z " fill="#83CBB0" transform="translate(494,83)"/>
<path d="M0 0 C3.3 0 6.6 0 10 0 C10 0.99 10 1.98 10 3 C8.68 3.33 7.36 3.66 6 4 C6.33 5.32 6.66 6.64 7 8 C6.34 8 5.68 8 5 8 C5 7.34 5 6.68 5 6 C-0.61 6 -6.22 6 -12 6 C-12 6.66 -12 7.32 -12 8 C-12.99 8 -13.98 8 -15 8 C-15 7.34 -15 6.68 -15 6 C-16.65 6 -18.3 6 -20 6 C-20 5.67 -20 5.34 -20 5 C-13.4 4.34 -6.8 3.68 0 3 C0 2.01 0 1.02 0 0 Z " fill="#6C6C6C" transform="translate(391,115)"/>
<path d="M0 0 C0.99 0 1.98 0 3 0 C3 0.99 3 1.98 3 3 C2.01 3 1.02 3 0 3 C0 3.66 0 4.32 0 5 C-0.66 5 -1.32 5 -2 5 C-2 5.66 -2 6.32 -2 7 C-5.64117 8.66227326 -8.50290369 9.2724556 -12.5 9.25 C-13.4178125 9.25515625 -14.335625 9.2603125 -15.28125 9.265625 C-18.1778282 8.98262598 -20.36375653 8.20350245 -23 7 C-23 6.34 -23 5.68 -23 5 C-22.16597656 4.95101562 -21.33195312 4.90203125 -20.47265625 4.8515625 C-13.79602398 4.40798327 -7.44971187 3.82741836 -1 2 C-0.67 1.34 -0.34 0.68 0 0 Z " fill="#252525" transform="translate(401,180)"/>
<path d="M0 0 C0.33 0 0.66 0 1 0 C1 1.65 1 3.3 1 5 C0.34 5 -0.32 5 -1 5 C-0.979375 5.804375 -0.95875 6.60875 -0.9375 7.4375 C-1 10 -1 10 -2 11 C-1.01 10.67 -0.02 10.34 1 10 C0.49821009 14.3488459 -2.09697538 16.89443878 -5 20 C-7.3125 21.375 -7.3125 21.375 -9 22 C-9 21.34 -9 20.68 -9 20 C-12.96 20.495 -12.96 20.495 -17 21 C-16.01 20.67 -15.02 20.34 -14 20 C-14 19.34 -14 18.68 -14 18 C-12.35 17.67 -10.7 17.34 -9 17 C-9 16.34 -9 15.68 -9 15 C-8.34 15 -7.68 15 -7 15 C-7 14.34 -7 13.68 -7 13 C-6.01 13 -5.02 13 -4 13 C-4 11.35 -4 9.7 -4 8 C-3.34 8 -2.68 8 -2 8 C-2 6.35 -2 4.7 -2 3 C-1.34 3 -0.68 3 0 3 C0 2.01 0 1.02 0 0 Z " fill="#3A3A3A" transform="translate(358,165)"/>
<path d="M0 0 C0 0.99 0 1.98 0 3 C-3.74179277 5.16732412 -7.77252789 6.06396977 -11.9375 7.0625 C-12.64068359 7.23587891 -13.34386719 7.40925781 -14.06835938 7.58789062 C-17.69764126 8.47565311 -21.32917442 9.30318967 -25 10 C-25 9.34 -25 8.68 -25 8 C-24.34 8 -23.68 8 -23 8 C-23 7.34 -23 6.68 -23 6 C-21.35 6 -19.7 6 -18 6 C-18 5.34 -18 4.68 -18 4 C-11.74827614 1.13035626 -6.90352555 -0.51137226 0 0 Z " fill="#FD9CB0" transform="translate(504,92)"/>
<path d="M0 0 C4.29 0 8.58 0 13 0 C13 0.66 13 1.32 13 2 C7.06 2.495 7.06 2.495 1 3 C1 3.66 1 4.32 1 5 C0.01 5 -0.98 5 -2 5 C-2 5.66 -2 6.32 -2 7 C-5.3171411 8.4216319 -8.44219804 9.39009109 -12 10 C-11.75 8.125 -11.75 8.125 -11 6 C-8.9375 4.75 -8.9375 4.75 -7 4 C-7 3.34 -7 2.68 -7 2 C-4.69 2 -2.38 2 0 2 C0 1.34 0 0.68 0 0 Z " fill="#282828" transform="translate(328,116)"/>
<path d="M0 0 C0.99 0.33 1.98 0.66 3 1 C5.56634861 1.22718496 8.11678107 1.41608184 10.6875 1.5625 C11.38939453 1.60568359 12.09128906 1.64886719 12.81445312 1.69335938 C14.54275206 1.7991736 16.2713511 1.90006581 18 2 C14.36804504 4.42130331 12.61650652 4.21022785 8.3125 4.125 C7.13300781 4.10695312 5.95351563 4.08890625 4.73828125 4.0703125 C3.83464844 4.04710937 2.93101562 4.02390625 2 4 C2 4.66 2 5.32 2 6 C5.99795892 6.95619733 9.70803922 7.1039592 13.8125 7.0625 C15.55466797 7.04896484 15.55466797 7.04896484 17.33203125 7.03515625 C18.21246094 7.02355469 19.09289062 7.01195312 20 7 C20 7.66 20 8.32 20 9 C14.39 9 8.78 9 3 9 C3 8.34 3 7.68 3 7 C1.68 7 0.36 7 -1 7 C-3.25 4.5 -3.25 4.5 -5 2 C-3.35 2 -1.7 2 0 2 C0 1.34 0 0.68 0 0 Z " fill="#6E6E6E" transform="translate(376,181)"/>
<path d="M0 0 C1.32 0 2.64 0 4 0 C4 0.99 4 1.98 4 3 C3.34 3 2.68 3 2 3 C1.773125 3.556875 1.54625 4.11375 1.3125 4.6875 C0 7 0 7 -2.375 9.25 C-5.50624814 12.53035519 -7.17570834 15.89279587 -9 20 C-9.66 20 -10.32 20 -11 20 C-11 21.32 -11 22.64 -11 24 C-11.66 24 -12.32 24 -13 24 C-13 22.35 -13 20.7 -13 19 C-12.34 19 -11.68 19 -11 19 C-10.67 16.69 -10.34 14.38 -10 12 C-9.34 12 -8.68 12 -8 12 C-8 11.34 -8 10.68 -8 10 C-7.34 10 -6.68 10 -6 10 C-6 9.01 -6 8.02 -6 7 C-5.01 7 -4.02 7 -3 7 C-2.87625 6.401875 -2.7525 5.80375 -2.625 5.1875 C-2 3 -2 3 0 0 Z " fill="#94A9B9" transform="translate(472,86)"/>
<path d="M0 0 C0.33 0 0.66 0 1 0 C1 9.24 1 18.48 1 28 C0.34 28 -0.32 28 -1 28 C-1 25.36 -1 22.72 -1 20 C-1.66 20 -2.32 20 -3 20 C-3 14.39 -3 8.78 -3 3 C-2.34 3 -1.68 3 -1 3 C-0.67 2.01 -0.34 1.02 0 0 Z " fill="#090909" transform="translate(309,140)"/>
<path d="M0 0 C0 0.99 0 1.98 0 3 C-0.66 3 -1.32 3 -2 3 C-2 3.66 -2 4.32 -2 5 C-3.32 5 -4.64 5 -6 5 C-6.268125 5.639375 -6.53625 6.27875 -6.8125 6.9375 C-8 9 -8 9 -11 10 C-11 10.99 -11 11.98 -11 13 C-11.66 13 -12.32 13 -13 13 C-13 13.66 -13 14.32 -13 15 C-14.32 15.33 -15.64 15.66 -17 16 C-16.67 14.02 -16.34 12.04 -16 10 C-15.01 10 -14.02 10 -13 10 C-12.814375 9.278125 -12.62875 8.55625 -12.4375 7.8125 C-9.77705162 2.60727492 -5.79965605 0 0 0 Z " fill="#FDA0B2" transform="translate(180,90)"/>
<path d="M0 0 C0.99 0.33 1.98 0.66 3 1 C5.74097357 7.39863034 5.22623462 14.08858845 5.125 20.9375 C5.11597656 22.09830078 5.10695313 23.25910156 5.09765625 24.45507812 C5.07421265 27.30347495 5.03834572 30.15176481 5 33 C0.71 33 -3.58 33 -8 33 C-8 25.41 -8 17.82 -8 10 C-7.67 10 -7.34 10 -7 10 C-7 17.26 -7 24.52 -7 32 C-3.7 31.67 -0.4 31.34 3 31 C3.02682987 27.35411831 3.04675569 23.70843154 3.0625 20.0625 C3.07087891 19.02158203 3.07925781 17.98066406 3.08789062 16.90820312 C3.09111328 15.91884766 3.09433594 14.92949219 3.09765625 13.91015625 C3.10289307 12.99371338 3.10812988 12.07727051 3.11352539 11.13305664 C3.23921211 9.01636977 3.23921211 9.01636977 2 8 C1.95936168 6.33382885 1.957279 4.66611905 2 3 C1.34 3 0.68 3 0 3 C0 2.01 0 1.02 0 0 Z " fill="#FD91A6" transform="translate(489,160)"/>
<path d="M0 0 C0.66 0.33 1.32 0.66 2 1 C2 5 2 5 1 7 C0.34 7 -0.32 7 -1 7 C-1 7.99 -1 8.98 -1 10 C-1.66 10 -2.32 10 -3 10 C-3.12375 10.680625 -3.2475 11.36125 -3.375 12.0625 C-4.09100877 15.4277412 -5.02945125 18.70013425 -6 22 C-6.99 22 -7.98 22 -9 22 C-8.67 18.7 -8.34 15.4 -8 12 C-7.01 12 -6.02 12 -5 12 C-4.814375 10.9171875 -4.814375 10.9171875 -4.625 9.8125 C-4.0095069 7.04278106 -3.11555626 4.6029646 -2 2 C-1.34 2 -0.68 2 0 2 C0 1.34 0 0.68 0 0 Z " fill="#FDBFCB" transform="translate(162,103)"/>
<path d="M0 0 C2.97 0 5.94 0 9 0 C9.33 14.85 9.66 29.7 10 45 C12.64 45.33 15.28 45.66 18 46 C18 46.66 18 47.32 18 48 C14.7 48 11.4 48 8 48 C8 32.49 8 16.98 8 1 C5.36 1 2.72 1 0 1 C0 0.67 0 0.34 0 0 Z " fill="#FE5B7A" transform="translate(441,97)"/>
<path d="M0 0 C1.86398438 0.00676758 1.86398438 0.00676758 3.765625 0.01367188 C6.80213502 0.02535076 9.83854088 0.0417286 12.875 0.0625 C12.875 0.7225 12.875 1.3825 12.875 2.0625 C11.88056885 2.08755615 10.8861377 2.1126123 9.86157227 2.13842773 C6.18451253 2.23234882 2.5076485 2.33260619 -1.16918945 2.43481445 C-2.762893 2.47822146 -4.3566448 2.51989219 -5.95043945 2.55981445 C-8.23663908 2.61737807 -10.52259449 2.68111149 -12.80859375 2.74609375 C-13.8836039 2.77116249 -13.8836039 2.77116249 -14.98033142 2.79673767 C-18.34027382 2.61268654 -18.34027382 2.61268654 -21.125 4.0625 C-23.12458364 4.10330783 -25.12545254 4.10504356 -27.125 4.0625 C-26.135 3.7325 -25.145 3.4025 -24.125 3.0625 C-24.125 2.4025 -24.125 1.7425 -24.125 1.0625 C-16.07026218 0.03094464 -8.1118879 -0.05645318 0 0 Z " fill="#FE5C7B" transform="translate(111.125,98.9375)"/>
<path d="M0 0 C0.74056641 0.00451172 1.48113281 0.00902344 2.24414062 0.01367188 C4.05862899 0.02537825 5.87307534 0.04331102 7.6875 0.0625 C7.6875 0.7225 7.6875 1.3825 7.6875 2.0625 C3.3975 2.0625 -0.8925 2.0625 -5.3125 2.0625 C-5.3125 2.7225 -5.3125 3.3825 -5.3125 4.0625 C-6.385 4.18625 -7.4575 4.31 -8.5625 4.4375 C-11.7779107 4.97340178 -13.51692877 5.61651488 -16.3125 7.0625 C-17.6325 7.0625 -18.9525 7.0625 -20.3125 7.0625 C-20.3125 6.4025 -20.3125 5.7425 -20.3125 5.0625 C-19.3225 5.0625 -18.3325 5.0625 -17.3125 5.0625 C-17.3125 4.4025 -17.3125 3.7425 -17.3125 3.0625 C-15.9925 3.0625 -14.6725 3.0625 -13.3125 3.0625 C-13.3125 2.4025 -13.3125 1.7425 -13.3125 1.0625 C-8.8746439 -0.04915232 -4.54293614 -0.05277763 0 0 Z " fill="#9BAEBD" transform="translate(489.3125,107.9375)"/>
<path d="M0 0 C4.4008703 3.82180842 5.80805531 6.47371099 7 12 C6.01 11.34 5.02 10.68 4 10 C3.67 10.99 3.34 11.98 3 13 C3.66 13 4.32 13 5 13 C4.67 14.32 4.34 15.64 4 17 C4 16.34 4 15.68 4 15 C3.34 15 2.68 15 2 15 C2 13.35 2 11.7 2 10 C1.34 10 0.68 10 0 10 C0 9.01 0 8.02 0 7 C-1.32 6.67 -2.64 6.34 -4 6 C-4.33 4.68 -4.66 3.36 -5 2 C-2.525 2.495 -2.525 2.495 0 3 C0 2.01 0 1.02 0 0 Z " fill="#5A5A5A" transform="translate(354,123)"/>
<path d="M0 0 C1.65 0 3.3 0 5 0 C4.67 1.65 4.34 3.3 4 5 C3.34 5 2.68 5 2 5 C1.93941406 5.6290625 1.87882813 6.258125 1.81640625 6.90625 C1.29004493 12.28323337 0.69453543 17.64215527 0 23 C-0.33 23 -0.66 23 -1 23 C-2.66663557 15.08348105 -2.65825224 7.64247519 0 0 Z " fill="#93A8B9" transform="translate(147,98)"/>
<path d="M0 0 C1.051875 -0.00386719 1.051875 -0.00386719 2.125 -0.0078125 C4 0.125 4 0.125 6 1.125 C6 2.115 6 3.105 6 4.125 C6.99 4.125 7.98 4.125 9 4.125 C9 4.785 9 5.445 9 6.125 C8.34 6.125 7.68 6.125 7 6.125 C6.67 7.775 6.34 9.425 6 11.125 C5.34 11.125 4.68 11.125 4 11.125 C4 8.815 4 6.505 4 4.125 C3.01 4.125 2.02 4.125 1 4.125 C1 3.465 1 2.805 1 2.125 C-2.2542015 4.95930453 -3.5206753 6.81107774 -4 11.125 C-4.33 11.125 -4.66 11.125 -5 11.125 C-4.67 8.155 -4.34 5.185 -4 2.125 C-4.66 1.795 -5.32 1.465 -6 1.125 C-3.75487738 0.00243869 -2.48543351 -0.00913762 0 0 Z " fill="#D1D1D1" transform="translate(335,133.875)"/>
<path d="M0 0 C0.66 0 1.32 0 2 0 C2 1.65 2 3.3 2 5 C2.66 5 3.32 5 4 5 C4.05791844 8.12492251 4.09356746 11.24970766 4.125 14.375 C4.14175781 15.26445312 4.15851563 16.15390625 4.17578125 17.0703125 C4.18222656 17.92109375 4.18867188 18.771875 4.1953125 19.6484375 C4.20578613 20.43395996 4.21625977 21.21948242 4.22705078 22.02880859 C4 24 4 24 2 26 C1.67 19.4 1.34 12.8 1 6 C0.34 5.67 -0.32 5.34 -1 5 C-0.67 3.35 -0.34 1.7 0 0 Z " fill="#0A0A0A" transform="translate(409,139)"/>
<path d="M0 0 C1.134375 0.020625 2.26875 0.04125 3.4375 0.0625 C3.4375 2.3725 3.4375 4.6825 3.4375 7.0625 C1.1275 7.3925 -1.1825 7.7225 -3.5625 8.0625 C-3.94313221 5.7364143 -4.27519945 3.40194736 -4.5625 1.0625 C-3.5625 0.0625 -3.5625 0.0625 0 0 Z " fill="#919191" transform="translate(387.5625,144.9375)"/>
<path d="M0 0 C4.75 0.875 4.75 0.875 7 2 C7 2.66 7 3.32 7 4 C5.35 4.33 3.7 4.66 2 5 C2 5.66 2 6.32 2 7 C1.34 7 0.68 7 0 7 C0 7.99 0 8.98 0 10 C-0.99 10 -1.98 10 -3 10 C-3 9.01 -3 8.02 -3 7 C-3.66 7 -4.32 7 -5 7 C-5 5 -5 5 -3.625 3.375 C-2 2 -2 2 0 2 C0 1.34 0 0.68 0 0 Z " fill="#2B2B2B" transform="translate(374,123)"/>
<path d="M0 0 C0.66 0.66 1.32 1.32 2 2 C2.66 1.34 3.32 0.68 4 0 C4.02696009 2.7708983 4.04681952 5.5415345 4.0625 8.3125 C4.07087891 9.09818359 4.07925781 9.88386719 4.08789062 10.69335938 C4.09111328 11.45068359 4.09433594 12.20800781 4.09765625 12.98828125 C4.10289307 13.68477783 4.10812988 14.38127441 4.11352539 15.09887695 C4 17 4 17 3 20 C2.34 20 1.68 20 1 20 C0.202163 13.30386804 -0.12910853 6.74233419 0 0 Z " fill="#D8E0E6" transform="translate(144,113)"/>
<path d="M0 0 C0.33 0 0.66 0 1 0 C1 15.84 1 31.68 1 48 C0.34 48 -0.32 48 -1 48 C-1.33 48.66 -1.66 49.32 -2 50 C-2 48.35 -2 46.7 -2 45 C-1.34 45 -0.68 45 0 45 C0 30.15 0 15.3 0 0 Z " fill="#FD849B" transform="translate(181,125)"/>
<path d="M0 0 C4.29 0 8.58 0 13 0 C13 4.62 13 9.24 13 14 C12.01 14 11.02 14 10 14 C10 10.37 10 6.74 10 3 C6.7 2.67 3.4 2.34 0 2 C0 1.34 0 0.68 0 0 Z " fill="#A4A4A4" transform="translate(366,146)"/>
<path d="M0 0 C0.98820992 0.00424484 0.98820992 0.00424484 1.99638367 0.00857544 C4.08501937 0.01970326 6.17321431 0.04479302 8.26171875 0.0703125 C9.68423857 0.08035191 11.10676515 0.08947608 12.52929688 0.09765625 C16.00274556 0.11961803 19.47593908 0.15409604 22.94921875 0.1953125 C22.94921875 0.5253125 22.94921875 0.8553125 22.94921875 1.1953125 C22.23378906 1.21513184 21.51835938 1.23495117 20.78125 1.25537109 C17.50357015 1.35130577 14.22646874 1.46070548 10.94921875 1.5703125 C9.82386719 1.60125 8.69851562 1.6321875 7.5390625 1.6640625 C-3.28764876 1.96109531 -3.28764876 1.96109531 -13.05078125 6.1953125 C-15.23828125 5.8203125 -15.23828125 5.8203125 -17.05078125 5.1953125 C-11.18431063 1.50781668 -6.99768192 -0.05955474 0 0 Z " fill="#FED6DE" transform="translate(101.05078125,111.8046875)"/>
<path d="M0 0 C3.3 0 6.6 0 10 0 C10 0.66 10 1.32 10 2 C13.3 2 16.6 2 20 2 C20 2.33 20 2.66 20 3 C13.73 3 7.46 3 1 3 C1 3.99 1 4.98 1 6 C2.98 6 4.96 6 7 6 C7 6.33 7 6.66 7 7 C4.69 7 2.38 7 0 7 C-1.125 2.25 -1.125 2.25 0 0 Z " fill="#454545" transform="translate(371,113)"/>
<path d="M0 0 C4.57588204 -0.31924758 7.44035648 -0.03616654 11 3 C11.3125 5.6875 11.3125 5.6875 11 8 C9.35 7.67 7.7 7.34 6 7 C6 6.34 6 5.68 6 5 C5.01 5 4.02 5 3 5 C3 4.34 3 3.68 3 3 C2.01 2.67 1.02 2.34 0 2 C0 1.34 0 0.68 0 0 Z " fill="#0D0D0D" transform="translate(343,118)"/>
<path d="M0 0 C0.66 0 1.32 0 2 0 C2 1.65 2 3.3 2 5 C1.34 5 0.68 5 0 5 C-0.33 5.99 -0.66 6.98 -1 8 C-2.6454378 9.68762851 -4.31288577 11.3540349 -6 13 C-6.99 14.485 -6.99 14.485 -8 16 C-8.66 16 -9.32 16 -10 16 C-10 15.01 -10 14.02 -10 13 C-9.34 13 -8.68 13 -8 13 C-8 12.01 -8 11.02 -8 10 C-7.34 10 -6.68 10 -6 10 C-5.67 8.35 -5.34 6.7 -5 5 C-4.34 5 -3.68 5 -3 5 C-2.690625 4.360625 -2.38125 3.72125 -2.0625 3.0625 C-1 1 -1 1 0 0 Z " fill="#7DC9AC" transform="translate(167,85)"/>
<path d="M0 0 C1.65 0 3.3 0 5 0 C5 0.66 5 1.32 5 2 C3.3203125 3.2890625 3.3203125 3.2890625 1.125 4.625 C0.40570313 5.07101563 -0.31359375 5.51703125 -1.0546875 5.9765625 C-3 7 -3 7 -5 7 C-5 7.66 -5 8.32 -5 9 C-6.98 9.99 -8.96 10.98 -11 12 C-10.67 10.35 -10.34 8.7 -10 7 C-9.01 7 -8.02 7 -7 7 C-7 6.34 -7 5.68 -7 5 C-2.61538462 2 -2.61538462 2 0 2 C0 1.34 0 0.68 0 0 Z " fill="#8099AC" transform="translate(174,108)"/>
<path d="M0 0 C0.91265625 0.433125 0.91265625 0.433125 1.84375 0.875 C10.34855138 4.47703353 17.95255003 4.40866775 27 4 C24.0604045 6.9395955 21.42849056 7.17312699 17.4375 7.25 C11.92905089 7.21754964 7.15542773 5.84279119 2 4 C2 3.34 2 2.68 2 2 C1.34 2 0.68 2 0 2 C0 1.34 0 0.68 0 0 Z " fill="#FD7B93" transform="translate(137,186)"/>
<path d="M0 0 C0.66 0.33 1.32 0.66 2 1 C1.67 1.33 1.34 1.66 1 2 C1.66 2.33 2.32 2.66 3 3 C3 4.65 3 6.3 3 8 C2.01 7.67 1.02 7.34 0 7 C0.66 7 1.32 7 2 7 C2 6.34 2 5.68 2 5 C-2.66091941 6.65897132 -6.84148523 8.27097468 -11 11 C-10.25 8.5625 -10.25 8.5625 -9 6 C-6.875 5.1875 -6.875 5.1875 -5 5 C-5 4.34 -5 3.68 -5 3 C-2.625 1.3125 -2.625 1.3125 0 0 Z " fill="#F8F5E9" transform="translate(174,112)"/>
<path d="M0 0 C0.33 0.66 0.66 1.32 1 2 C1.66 2.33 2.32 2.66 3 3 C1.35 3.33 -0.3 3.66 -2 4 C-2 4.66 -2 5.32 -2 6 C-2.66 6 -3.32 6 -4 6 C-4 6.66 -4 7.32 -4 8 C-4.598125 8.268125 -5.19625 8.53625 -5.8125 8.8125 C-8.04327908 9.8893979 -8.04327908 9.8893979 -9.625 11.625 C-10.07875 12.07875 -10.5325 12.5325 -11 13 C-11.66 13 -12.32 13 -13 13 C-12.62207203 10.32543283 -12.20233084 9.19388186 -10.22265625 7.296875 C-9.50980469 6.78640625 -8.79695313 6.2759375 -8.0625 5.75 C-7.35222656 5.22921875 -6.64195312 4.7084375 -5.91015625 4.171875 C-4 3 -4 3 -2 3 C-2 2.34 -2 1.68 -2 1 C-1.34 0.67 -0.68 0.34 0 0 Z " fill="#FBCCD6" transform="translate(478,100)"/>
<path d="M0 0 C0 0.66 0 1.32 0 2 C3.3 2.33 6.6 2.66 10 3 C10 3.66 10 4.32 10 5 C9.443125 4.98839844 8.88625 4.97679688 8.3125 4.96484375 C2.06167416 4.89093196 -4.01546794 5.00515598 -10 7 C-10 6.34 -10 5.68 -10 5 C-9.34 5 -8.68 5 -8 5 C-8 4.34 -8 3.68 -8 3 C-7.01 3 -6.02 3 -5 3 C-5 2.34 -5 1.68 -5 1 C-3 0 -3 0 0 0 Z " fill="#767676" transform="translate(329,95)"/>
<path d="M0 0 C0 1.32 0 2.64 0 4 C-5.28 4 -10.56 4 -16 4 C-16 3.34 -16 2.68 -16 2 C-10.42932723 0.40837921 -5.78898419 -0.20674944 0 0 Z " fill="#FDEAA8" transform="translate(489,113)"/>
<path d="M0 0 C0.99 0 1.98 0 3 0 C3 1.32 3 2.64 3 4 C4.65 2.68 6.3 1.36 8 0 C7.67 1.65 7.34 3.3 7 5 C6.34 5 5.68 5 5 5 C5 5.66 5 6.32 5 7 C4.34 7 3.68 7 3 7 C3 6.34 3 5.68 3 5 C2.01 5 1.02 5 0 5 C-0.33 5.99 -0.66 6.98 -1 8 C-2.32 8 -3.64 8 -5 8 C-5 7.34 -5 6.68 -5 6 C-4.360625 5.7525 -3.72125 5.505 -3.0625 5.25 C-0.81258459 4.18437567 -0.81258459 4.18437567 -0.25 1.875 C-0.1675 1.25625 -0.085 0.6375 0 0 Z " fill="#565656" transform="translate(401,175)"/>
<path d="M0 0 C1.984375 1.296875 1.984375 1.296875 4 4 C4.51822475 7.75636284 4.374817 11.4670848 4.25 15.25 C4.23195313 16.28125 4.21390625 17.3125 4.1953125 18.375 C4.14822712 20.91761064 4.0824805 23.45833162 4 26 C6.97 26 9.94 26 13 26 C13 26.33 13 26.66 13 27 C9.7 27 6.4 27 3 27 C3 19.74 3 12.48 3 5 C2.01 4.67 1.02 4.34 0 4 C0 2.68 0 1.36 0 0 Z " fill="#FE5978" transform="translate(479,165)"/>
<path d="M0 0 C4.62 0 9.24 0 14 0 C14 0.66 14 1.32 14 2 C10.04 2 6.08 2 2 2 C2 5.96 2 9.92 2 14 C1.67 14 1.34 14 1 14 C0.67 9.38 0.34 4.76 0 0 Z " fill="#A0A0A0" transform="translate(395,146)"/>
<path d="M0 0 C0.66 0 1.32 0 2 0 C2 0.99 2 1.98 2 3 C2.99 3 3.98 3 5 3 C4.690625 3.598125 4.38125 4.19625 4.0625 4.8125 C2.89790296 7.08956772 2.89790296 7.08956772 2 10 C1.34 10 0.68 10 0 10 C0 9.01 0 8.02 0 7 C-0.99 7 -1.98 7 -3 7 C-2.67 5.35 -2.34 3.7 -2 2 C-1.34 2 -0.68 2 0 2 C0 1.34 0 0.68 0 0 Z " fill="#484848" transform="translate(314,123)"/>
<path d="M0 0 C4.29 0 8.58 0 13 0 C13 0.66 13 1.32 13 2 C12.35933594 2.06058594 11.71867187 2.12117188 11.05859375 2.18359375 C6.01576687 2.67209412 1.0087898 3.23779286 -4 4 C-4 3.34 -4 2.68 -4 2 C-2.68 2 -1.36 2 0 2 C0 1.34 0 0.68 0 0 Z " fill="#070707" transform="translate(328,116)"/>
<path d="M0 0 C0.33 0 0.66 0 1 0 C2.2063366 5.22745859 1.75612577 9.76528314 1 15 C0.01 15.33 -0.98 15.66 -2 16 C-2 12.37 -2 8.74 -2 5 C-1.34 5 -0.68 5 0 5 C0 3.35 0 1.7 0 0 Z " fill="#C6E7DB" transform="translate(151,110)"/>
<path d="M0 0 C2.475 0.495 2.475 0.495 5 1 C5 1.66 5 2.32 5 3 C5.99 3 6.98 3 8 3 C8 4.98 8 6.96 8 9 C5.625 9.625 5.625 9.625 3 10 C2.34 9.34 1.68 8.68 1 8 C2.32 8 3.64 8 5 8 C5 6.68 5 5.36 5 4 C4.34 4 3.68 4 3 4 C3 3.34 3 2.68 3 2 C2.01 2 1.02 2 0 2 C0 1.34 0 0.68 0 0 Z " fill="#656565" transform="translate(346,95)"/>
<path d="M0 0 C1.32 0 2.64 0 4 0 C4 0.66 4 1.32 4 2 C7.96 2 11.92 2 16 2 C16 2.66 16 3.32 16 4 C13.89611431 4.05402274 11.79183286 4.09280256 9.6875 4.125 C7.92986328 4.15980469 7.92986328 4.15980469 6.13671875 4.1953125 C3 4 3 4 0 2 C0 1.34 0 0.68 0 0 Z " fill="#060606" transform="translate(325,186)"/>
<path d="M0 0 C1.65 0 3.3 0 5 0 C4.01 3.3 3.02 6.6 2 10 C1.01 10 0.02 10 -1 10 C-0.67 6.7 -0.34 3.4 0 0 Z " fill="#FCD7DF" transform="translate(154,115)"/>
<path d="M0 0 C0.66 0 1.32 0 2 0 C2 0.99 2 1.98 2 3 C2.99 3.33 3.98 3.66 5 4 C2.525 5.485 2.525 5.485 0 7 C0 6.34 0 5.68 0 5 C-2.64 5.33 -5.28 5.66 -8 6 C-7.01 5.67 -6.02 5.34 -5 5 C-5 4.34 -5 3.68 -5 3 C-3.35 2.67 -1.7 2.34 0 2 C0 1.34 0 0.68 0 0 Z " fill="#434343" transform="translate(349,180)"/>
<path d="M0 0 C4.62 0 9.24 0 14 0 C14 0.99 14 1.98 14 3 C14.99 3 15.98 3 17 3 C17 4.32 17 5.64 17 7 C15.35 7 13.7 7 12 7 C12.33 5.02 12.66 3.04 13 1 C8.71 1 4.42 1 0 1 C0 0.67 0 0.34 0 0 Z " fill="#CAD4DC" transform="translate(484,107)"/>
<path d="M0 0 C1.1875 1.625 1.1875 1.625 2 4 C0.625 7.25 0.625 7.25 -1 10 C-1.66 10 -2.32 10 -3 10 C-3 11.32 -3 12.64 -3 14 C-3.66 14 -4.32 14 -5 14 C-5 12.35 -5 10.7 -5 9 C-4.34 9 -3.68 9 -3 9 C-2.67 6.69 -2.34 4.38 -2 2 C-1.34 2 -0.68 2 0 2 C0 1.34 0 0.68 0 0 Z " fill="#B7C5D0" transform="translate(464,96)"/>
<path d="M0 0 C0.33 0 0.66 0 1 0 C1 1.65 1 3.3 1 5 C1.66 5 2.32 5 3 5 C3.17835515 9.54805635 2.99785435 12.8794254 1 17 C0.67 17 0.34 17 0 17 C0 11.39 0 5.78 0 0 Z " fill="#949494" transform="translate(346,143)"/>
<path d="M0 0 C1.32 0 2.64 0 4 0 C4.66 2.31 5.32 4.62 6 7 C5.01 6.34 4.02 5.68 3 5 C2.67 5.99 2.34 6.98 2 8 C2.66 8 3.32 8 4 8 C3.67 9.32 3.34 10.64 3 12 C3 11.34 3 10.68 3 10 C2.34 10 1.68 10 1 10 C0.67 6.7 0.34 3.4 0 0 Z " fill="#373737" transform="translate(355,128)"/>
<path d="M0 0 C1.28132813 0.00902344 2.56265625 0.01804687 3.8828125 0.02734375 C4.87023437 0.03894531 5.85765625 0.05054687 6.875 0.0625 C7.205 0.7225 7.535 1.3825 7.875 2.0625 C-0.045 2.5575 -0.045 2.5575 -8.125 3.0625 C-8.455 2.4025 -8.785 1.7425 -9.125 1.0625 C-6.12186252 -0.43906874 -3.33432478 -0.03031204 0 0 Z " fill="#040404" transform="translate(387.125,121.9375)"/>
<path d="M0 0 C0 0.66 0 1.32 0 2 C-2.64738916 3.4606285 -3.89448334 4 -7 4 C-7 4.66 -7 5.32 -7 6 C-8.65 6.33 -10.3 6.66 -12 7 C-12 6.34 -12 5.68 -12 5 C-7.94201961 1.38072019 -5.5241925 0 0 0 Z " fill="#FDE8A2" transform="translate(176,117)"/>
<path d="M0 0 C1.65 0 3.3 0 5 0 C5 0.99 5 1.98 5 3 C3.68 3.33 2.36 3.66 1 4 C1.33 5.32 1.66 6.64 2 8 C1.34 8 0.68 8 0 8 C0 7.34 0 6.68 0 6 C-1.65 5.67 -3.3 5.34 -5 5 C-2 3 -2 3 0 3 C0 2.01 0 1.02 0 0 Z " fill="#B0B0B0" transform="translate(396,115)"/>
<path d="M0 0 C2 0 2 0 4.625 2.5 C5.800625 3.7375 5.800625 3.7375 7 5 C6.67 5.66 6.34 6.32 6 7 C4.68 6.34 3.36 5.68 2 5 C2 5.66 2 6.32 2 7 C1.34 7 0.68 7 0 7 C0 6.34 0 5.68 0 5 C-1.65 4.67 -3.3 4.34 -5 4 C-5 3.67 -5 3.34 -5 3 C-3.35 3 -1.7 3 0 3 C0 2.01 0 1.02 0 0 Z " fill="#3A3A3A" transform="translate(399,123)"/>
<path d="M0 0 C10.55808656 -0.3690205 10.55808656 -0.3690205 15 2 C15 2.33 15 2.66 15 3 C9.39 3 3.78 3 -2 3 C-1.34 2.67 -0.68 2.34 0 2 C0 1.34 0 0.68 0 0 Z " fill="#FCB9C6" transform="translate(456,155)"/>
<path d="M0 0 C1.0625 1.8125 1.0625 1.8125 2 4 C1.67 4.99 1.34 5.98 1 7 C0.01 7 -0.98 7 -2 7 C-2.33 7.99 -2.66 8.98 -3 10 C-3.66 9.67 -4.32 9.34 -5 9 C-3.7508258 5.54074837 -2.32472205 2.85306797 0 0 Z " fill="#E6EFEF" transform="translate(468,96)"/>
<path d="M0 0 C6.93 0.495 6.93 0.495 14 1 C14 1.66 14 2.32 14 3 C12.41676312 3.027193 10.83338938 3.04648306 9.25 3.0625 C7.92742187 3.07990234 7.92742187 3.07990234 6.578125 3.09765625 C4.2181162 3.00826198 2.25501476 2.66912821 0 2 C0 1.34 0 0.68 0 0 Z " fill="#060606" transform="translate(378,185)"/>
<path d="M0 0 C0.99 0 1.98 0 3 0 C3 1.65 3 3.3 3 5 C2.34 5 1.68 5 1 5 C0.67 6.65 0.34 8.3 0 10 C-0.33 10 -0.66 10 -1 10 C-1.9765625 3.9453125 -1.9765625 3.9453125 -2 2 C-1.34 1.34 -0.68 0.68 0 0 Z " fill="#202020" transform="translate(368,130)"/>
<path d="M0 0 C1.65 0 3.3 0 5 0 C2.65025865 3.52461202 1.12608655 3.77325461 -2.890625 4.66015625 C-5.61711748 5.09942448 -8.24570252 5.13771487 -11 5 C-8.28817788 2.39665076 -7.10866187 2.00543309 -3.25 1.8125 C-2.1775 1.874375 -1.105 1.93625 0 2 C0 1.34 0 0.68 0 0 Z " fill="#F1F2EE" transform="translate(484,110)"/>
<path d="M0 0 C0.33 0.66 0.66 1.32 1 2 C2.65 1.34 4.3 0.68 6 0 C6 0.99 6 1.98 6 3 C4.35 3 2.7 3 1 3 C1 3.66 1 4.32 1 5 C-0.65 5.33 -2.3 5.66 -4 6 C-4 5.01 -4 4.02 -4 3 C-3.34 3 -2.68 3 -2 3 C-2 2.34 -2 1.68 -2 1 C-1.34 0.67 -0.68 0.34 0 0 Z " fill="#C7C7C7" transform="translate(318,100)"/>
<path d="M0 0 C4.95 0.99 4.95 0.99 10 2 C8.68 2.33 7.36 2.66 6 3 C6.33 3.99 6.66 4.98 7 6 C4.0625 5.25 4.0625 5.25 1 4 C0.67 2.68 0.34 1.36 0 0 Z " fill="#202020" transform="translate(319,183)"/>
<path d="M0 0 C0.68513672 -0.00386719 1.37027344 -0.00773437 2.07617188 -0.01171875 C7.1841133 -0.00169335 7.1841133 -0.00169335 9.4375 1.125 C9.4375 1.785 9.4375 2.445 9.4375 3.125 C8.72722656 2.96257812 8.01695312 2.80015625 7.28515625 2.6328125 C4.41722991 2.12138531 1.78508318 1.99190519 -1.125 2 C-2.05441406 1.99742188 -2.98382813 1.99484375 -3.94140625 1.9921875 C-6.30397476 2.11190036 -8.30280763 2.45506767 -10.5625 3.125 C-10.5625 2.465 -10.5625 1.805 -10.5625 1.125 C-6.98556178 -0.06731274 -3.72067447 -0.0211202 0 0 Z " fill="#ADADAD" transform="translate(336.5625,119.875)"/>
<path d="M0 0 C0.66 0.99 1.32 1.98 2 3 C1.21654285 4.17219543 0.42297164 5.33763668 -0.375 6.5 C-0.81585938 7.1496875 -1.25671875 7.799375 -1.7109375 8.46875 C-2.34902344 9.22671875 -2.34902344 9.22671875 -3 10 C-3.66 10 -4.32 10 -5 10 C-5 10.66 -5 11.32 -5 12 C-5.66 12 -6.32 12 -7 12 C-5.125 7.25 -5.125 7.25 -4 5 C-3.01 5 -2.02 5 -1 5 C-0.67 3.35 -0.34 1.7 0 0 Z " fill="#C3E5D8" transform="translate(470,98)"/>
<path d="M0 0 C3.63 0 7.26 0 11 0 C10.67 0.99 10.34 1.98 10 3 C3.375 3.125 3.375 3.125 0 2 C0 1.34 0 0.68 0 0 Z " fill="#4A4A4A" transform="translate(381,165)"/>
<path d="M0 0 C0.66 0 1.32 0 2 0 C2 3.3 2 6.6 2 10 C1.01 10 0.02 10 -1 10 C-1.125 2.25 -1.125 2.25 0 0 Z " fill="#FE4D6F" transform="translate(75,130)"/>
<path d="M0 0 C0.66 0.33 1.32 0.66 2 1 C1.67 2.65 1.34 4.3 1 6 C0.34 6 -0.32 6 -1 6 C-1 6.66 -1 7.32 -1 8 C-1.66 8 -2.32 8 -3 8 C-3 8.66 -3 9.32 -3 10 C-3.66 10 -4.32 10 -5 10 C-4.38545304 6.00544473 -2.29353263 3.25533664 0 0 Z " fill="#C2CED6" transform="translate(162,117)"/>
<path d="M0 0 C1.65 0 3.3 0 5 0 C5 0.99 5 1.98 5 3 C4.34 3.66 3.68 4.32 3 5 C3 5.33 3 5.66 3 6 C1.35 6 -0.3 6 -2 6 C-2 5.01 -2 4.02 -2 3 C-1.34 3 -0.68 3 0 3 C0 2.01 0 1.02 0 0 Z " fill="#656565" transform="translate(391,115)"/>
<path d="M0 0 C1.65 0 3.3 0 5 0 C5 0.66 5 1.32 5 2 C1.69005287 3.65497356 -1.99123 3.10084335 -5.625 3.0625 C-6.42679687 3.05798828 -7.22859375 3.05347656 -8.0546875 3.04882812 C-10.03649006 3.03703168 -12.01825433 3.01909605 -14 3 C-14 2.67 -14 2.34 -14 2 C-9.38 2 -4.76 2 0 2 C0 1.34 0 0.68 0 0 Z " fill="#1D1D1D" transform="translate(386,116)"/>
<path d="M0 0 C1.32 0.66 2.64 1.32 4 2 C-0.75 6 -0.75 6 -3 6 C-3 6.66 -3 7.32 -3 8 C-3.99 8 -4.98 8 -6 8 C-6 6 -6 6 -4.625 4.375 C-3 3 -3 3 -1 3 C-0.67 2.01 -0.34 1.02 0 0 Z " fill="#A0D7C3" transform="translate(477,92)"/>
<path d="M0 0 C0.33 0 0.66 0 1 0 C1 2.64 1 5.28 1 8 C0.01 8.495 0.01 8.495 -1 9 C-1.66 8.67 -2.32 8.34 -3 8 C-3 6.35 -3 4.7 -3 3 C-2.34 3 -1.68 3 -1 3 C-0.67 2.01 -0.34 1.02 0 0 Z " fill="#131313" transform="translate(309,140)"/>
<path d="M0 0 C1.65 0.33 3.3 0.66 5 1 C4.01 1.495 4.01 1.495 3 2 C2.65846063 3.66500443 2.32550502 5.33178677 2 7 C1.34 7.66 0.68 8.32 0 9 C-1.10844919 5.67465243 -0.84454356 3.37817425 0 0 Z " fill="#E5E7E7" transform="translate(154,126)"/>
<path d="M0 0 C2.64 0 5.28 0 8 0 C8 0.66 8 1.32 8 2 C9.65 2 11.3 2 13 2 C13 2.66 13 3.32 13 4 C8.71 3.34 4.42 2.68 0 2 C0 1.34 0 0.68 0 0 Z " fill="#FE9AAD" transform="translate(206,136)"/>
<path d="M0 0 C2.77042109 2.77042109 2.39796106 4.76533805 2.625 8.625 C2.69976562 9.81351563 2.77453125 11.00203125 2.8515625 12.2265625 C2.92503906 13.59941406 2.92503906 13.59941406 3 15 C2.67 15 2.34 15 2 15 C2 13.35 2 11.7 2 10 C1.34 10 0.68 10 0 10 C0 6.7 0 3.4 0 0 Z " fill="#C8D3DC" transform="translate(144,113)"/>
<path d="M0 0 C0.33 0.66 0.66 1.32 1 2 C1.66 2 2.32 2 3 2 C3 2.66 3 3.32 3 4 C4.65 4.33 6.3 4.66 8 5 C8 5.66 8 6.32 8 7 C5.69 6.34 3.38 5.68 1 5 C0.67 5.66 0.34 6.32 0 7 C-0.66 6.34 -1.32 5.68 -2 5 C-1.34 3.35 -0.68 1.7 0 0 Z " fill="#464646" transform="translate(318,178)"/>
<path d="M0 0 C-0.61277612 2.96175123 -1.25372522 4.38058783 -3 7 C-3.66 7 -4.32 7 -5 7 C-5 5.02 -5 3.04 -5 1 C-2 0 -2 0 0 0 Z " fill="#181818" transform="translate(409,172)"/>
<path d="M0 0 C0.66 0 1.32 0 2 0 C2 1.65 2 3.3 2 5 C2.99 5.33 3.98 5.66 5 6 C5 8.97 5 11.94 5 15 C4.67 15 4.34 15 4 15 C3.3299166 12.87607494 2.66403203 10.75082476 2 8.625 C1.62875 7.44164062 1.2575 6.25828125 0.875 5.0390625 C0 2 0 2 0 0 Z " fill="#FDBFCB" transform="translate(237,143)"/>
<path d="M0 0 C-1.40751221 0.86916887 -2.8264521 1.71985149 -4.25 2.5625 C-5.03890625 3.03816406 -5.8278125 3.51382813 -6.640625 4.00390625 C-9.30844625 5.13022151 -10.34501768 5.0169313 -13 4 C-4.33663366 -1.44554455 -4.33663366 -1.44554455 0 0 Z " fill="#FEB7C5" transform="translate(97,113)"/>
<path d="M0 0 C1.65 0 3.3 0 5 0 C4.67 0.66 4.34 1.32 4 2 C3.34 2 2.68 2 2 2 C2 2.66 2 3.32 2 4 C0.02 4.99 -1.96 5.98 -4 7 C-3.67 5.35 -3.34 3.7 -3 2 C-2.01 2 -1.02 2 0 2 C0 1.34 0 0.68 0 0 Z " fill="#9FB2C0" transform="translate(167,113)"/>
<path d="M0 0 C2.97 0 5.94 0 9 0 C3 4 3 4 -2 4 C-2 3.34 -2 2.68 -2 2 C-1.34 2 -0.68 2 0 2 C0 1.34 0 0.68 0 0 Z " fill="#FBAABB" transform="translate(481,98)"/>
<path d="M0 0 C1.32 0 2.64 0 4 0 C3.67 1.65 3.34 3.3 3 5 C2.34 5 1.68 5 1 5 C0.67 5.66 0.34 6.32 0 7 C-0.66 7 -1.32 7 -2 7 C-2 6.34 -2 5.68 -2 5 C-1.34 5 -0.68 5 0 5 C0 3.35 0 1.7 0 0 Z " fill="#131313" transform="translate(357,170)"/>
<path d="M0 0 C0.66 0 1.32 0 2 0 C2 0.66 2 1.32 2 2 C2.99 2 3.98 2 5 2 C5 2.66 5 3.32 5 4 C4.34 4 3.68 4 3 4 C2.67 5.65 2.34 7.3 2 9 C1.34 9 0.68 9 0 9 C0 6.03 0 3.06 0 0 Z " fill="#717171" transform="translate(339,136)"/>
<path d="M0 0 C2.31 0 4.62 0 7 0 C7 0.66 7 1.32 7 2 C6.34 2 5.68 2 5 2 C5 2.99 5 3.98 5 5 C4.01 5 3.02 5 2 5 C2 4.01 2 3.02 2 2 C1.34 2 0.68 2 0 2 C0 1.34 0 0.68 0 0 Z " fill="#373737" transform="translate(369,128)"/>
<path d="M0 0 C0.66 0 1.32 0 2 0 C2 1.32 2 2.64 2 4 C2.66 4 3.32 4 4 4 C4.33 5.98 4.66 7.96 5 10 C4.01 10 3.02 10 2 10 C1.34 6.7 0.68 3.4 0 0 Z " fill="#A4A4A4" transform="translate(359,128)"/>
<path d="M0 0 C0.33 0.99 0.66 1.98 1 3 C0.07421875 4.82421875 0.07421875 4.82421875 -1.3125 6.6875 C-1.76238281 7.31011719 -2.21226562 7.93273437 -2.67578125 8.57421875 C-3.11277344 9.04472656 -3.54976562 9.51523438 -4 10 C-4.66 10 -5.32 10 -6 10 C-6 9.01 -6 8.02 -6 7 C-5.34 7 -4.68 7 -4 7 C-4 6.01 -4 5.02 -4 4 C-3.34 4 -2.68 4 -2 4 C-1.34 2.68 -0.68 1.36 0 0 Z " fill="#60BD9A" transform="translate(163,91)"/>
<path d="M0 0 C0.66 0 1.32 0 2 0 C2.33 3.3 2.66 6.6 3 10 C2.34 9.67 1.68 9.34 1 9 C1 8.01 1 7.02 1 6 C0.34 5.67 -0.32 5.34 -1 5 C-0.67 3.35 -0.34 1.7 0 0 Z " fill="#030303" transform="translate(409,139)"/>
<path d="M0 0 C0.99 0 1.98 0 3 0 C3 1.65 3 3.3 3 5 C2.34 5 1.68 5 1 5 C1 5.99 1 6.98 1 8 C0.34 8 -0.32 8 -1 8 C-0.67 5.36 -0.34 2.72 0 0 Z " fill="#090909" transform="translate(311,130)"/>
<path d="M0 0 C1.32 0 2.64 0 4 0 C4.33 1.65 4.66 3.3 5 5 C3.35 4.67 1.7 4.34 0 4 C0 2.68 0 1.36 0 0 Z " fill="#D7EEE6" transform="translate(489,100)"/>
<path d="M0 0 C0.99 0.33 1.98 0.66 3 1 C4.48882438 5.07467725 5.26270217 8.66541415 5 13 C4.690625 12.360625 4.38125 11.72125 4.0625 11.0625 C3.1654837 9.06389179 3.1654837 9.06389179 2 8 C1.95936168 6.33382885 1.957279 4.66611905 2 3 C1.34 3 0.68 3 0 3 C0 2.01 0 1.02 0 0 Z " fill="#FEBFCB" transform="translate(489,160)"/>
<path d="M0 0 C0.98120464 3.05263664 0.98120464 4.94736336 0 8 C-0.66 8 -1.32 8 -2 8 C-2 8.66 -2 9.32 -2 10 C-2.66 10 -3.32 10 -4 10 C-3.67 8.35 -3.34 6.7 -3 5 C-2.34 5 -1.68 5 -1 5 C-0.67 3.35 -0.34 1.7 0 0 Z " fill="#FE718C" transform="translate(473,125)"/>
<path d="M0 0 C0.66 0.33 1.32 0.66 2 1 C-0.46153846 5.8 -0.46153846 5.8 -3.1875 6.8125 C-3.785625 6.874375 -4.38375 6.93625 -5 7 C-1.125 1.125 -1.125 1.125 0 0 Z " fill="#B2B2B2" transform="translate(322,123)"/>
<path d="M0 0 C2.64 0.33 5.28 0.66 8 1 C8 1.66 8 2.32 8 3 C2.25 3.125 2.25 3.125 0 2 C0 1.34 0 0.68 0 0 Z " fill="#FE6683" transform="translate(214,125)"/>
<path d="M0 0 C1.65 0 3.3 0 5 0 C4.67 1.32 4.34 2.64 4 4 C2.68 4 1.36 4 0 4 C0 2.68 0 1.36 0 0 Z " fill="#D3DBE2" transform="translate(149,93)"/>
<path d="M0 0 C2.64 0 5.28 0 8 0 C7.01 0.495 7.01 0.495 6 1 C6 1.66 6 2.32 6 3 C3.03 2.505 3.03 2.505 0 2 C0 1.34 0 0.68 0 0 Z " fill="#B2B2B2" transform="translate(331,168)"/>
<path d="M0 0 C0.99 0 1.98 0 3 0 C3 0.99 3 1.98 3 3 C3.66 3.66 4.32 4.32 5 5 C2.69 5 0.38 5 -2 5 C-1.34 4.67 -0.68 4.34 0 4 C0 2.68 0 1.36 0 0 Z " fill="#E5E6DA" transform="translate(466,115)"/>
<path d="M0 0 C0.99 0.33 1.98 0.66 3 1 C2.67 1.99 2.34 2.98 2 4 C1.34 4 0.68 4 0 4 C0 4.66 0 5.32 0 6 C-0.66 6 -1.32 6 -2 6 C-1.125 1.125 -1.125 1.125 0 0 Z " fill="#FCB4C3" transform="translate(159,109)"/>
<path d="M0 0 C0.99 0.33 1.98 0.66 3 1 C3 1.66 3 2.32 3 3 C2.34 3 1.68 3 1 3 C1 3.66 1 4.32 1 5 C0.34 5 -0.32 5 -1 5 C-1.33 5.99 -1.66 6.98 -2 8 C-1.125 1.125 -1.125 1.125 0 0 Z " fill="#8FD0B8" transform="translate(156,100)"/>
<path d="M0 0 C1.32 0 2.64 0 4 0 C4 0.99 4 1.98 4 3 C2.02 3.33 0.04 3.66 -2 4 C-1.34 2.68 -0.68 1.36 0 0 Z " fill="#FE8BA2" transform="translate(176,90)"/>
<path d="M0 0 C0 0.99 0 1.98 0 3 C-0.99 3 -1.98 3 -3 3 C-3 3.66 -3 4.32 -3 5 C-4.32 4.67 -5.64 4.34 -7 4 C-3.375 0 -3.375 0 0 0 Z " fill="#101010" transform="translate(404,180)"/>
<path d="M0 0 C0.33 0.99 0.66 1.98 1 3 C1.66 3 2.32 3 3 3 C3 3.66 3 4.32 3 5 C3.99 5.33 4.98 5.66 6 6 C6 6.66 6 7.32 6 8 C4.125 7.6875 4.125 7.6875 2 7 C0 4 0 4 0 0 Z " fill="#A9A9A9" transform="translate(310,175)"/>
<path d="M0 0 C0.66 0 1.32 0 2 0 C2 1.32 2 2.64 2 4 C1.01 4 0.02 4 -1 4 C-1 4.66 -1 5.32 -1 6 C-1.66 6 -2.32 6 -3 6 C-1.125 1.125 -1.125 1.125 0 0 Z " fill="#A9A9A9" transform="translate(362,171)"/>
<path d="M0 0 C3.37462715 0.54723683 5.08235 1.0549 8 3 C8 3.66 8 4.32 8 5 C6.68 4.67 5.36 4.34 4 4 C4 3.34 4 2.68 4 2 C2.68 2 1.36 2 0 2 C0 1.34 0 0.68 0 0 Z " fill="#626262" transform="translate(346,118)"/>
<path d="M0 0 C-1.04874998 2.62187494 -1.64931313 3.79371361 -4.125 5.25 C-4.74375 5.4975 -5.3625 5.745 -6 6 C-3.84615385 0 -3.84615385 0 0 0 Z " fill="#ECECE4" transform="translate(169,117)"/>
<path d="M0 0 C1.485 0.99 1.485 0.99 3 2 C2.67 3.32 2.34 4.64 2 6 C1.01 6 0.02 6 -1 6 C-1.042721 4.33388095 -1.04063832 2.66617115 -1 1 C-0.67 0.67 -0.34 0.34 0 0 Z " fill="#F8F9F8" transform="translate(155,109)"/>
<path d="M0 0 C1.65 0 3.3 0 5 0 C4.67 1.65 4.34 3.3 4 5 C3.34 5 2.68 5 2 5 C1.34 3.35 0.68 1.7 0 0 Z " fill="#C7D2DB" transform="translate(147,98)"/>
</svg>
