<svg width="20" height="19" viewBox="0 0 20 19" fill="none" xmlns="http://www.w3.org/2000/svg">
<path d="M13.3801 12.6411L13.8361 12.1881L12.7771 11.1241L12.3231 11.5771L13.3801 12.6411ZM15.3652 11.9981L17.2761 13.0371L17.9911 11.7191L16.0812 10.6811L15.3652 11.9981ZM17.6432 15.1011L16.2232 16.5141L17.2801 17.5771L18.7001 16.1651L17.6432 15.1011ZM15.3572 16.9681C13.9072 17.1041 10.1572 16.9831 6.09515 12.9451L5.03715 14.0081C9.46915 18.4151 13.6882 18.6311 15.4972 18.4621L15.3572 16.9681ZM6.09515 12.9451C2.22415 9.09508 1.58215 5.85808 1.50215 4.45308L0.00414998 4.53808C0.10415 6.30608 0.89915 9.89408 5.03715 14.0081L6.09515 12.9451ZM7.47015 6.76508L7.75715 6.47908L6.70115 5.41608L6.41415 5.70108L7.47015 6.76508ZM7.98515 2.84408L6.72515 1.16008L5.52415 2.06008L6.78415 3.74308L7.98515 2.84408ZM2.48415 0.793082L0.91415 2.35308L1.97215 3.41708L3.54115 1.85708L2.48415 0.793082ZM6.94215 6.23308C6.41215 5.70108 6.41215 5.70108 6.41215 5.70308H6.41015L6.40715 5.70708C6.35963 5.755 6.31708 5.8076 6.28015 5.86408C6.22615 5.94408 6.16715 6.04908 6.11715 6.18208C5.99543 6.52541 5.9651 6.89449 6.02915 7.25308C6.16315 8.11808 6.75915 9.26108 8.28515 10.7791L9.34315 9.71508C7.91415 8.29508 7.57415 7.43108 7.51115 7.02308C7.48115 6.82908 7.51215 6.73308 7.52115 6.71108C7.52715 6.69775 7.52715 6.69575 7.52115 6.70508C7.51224 6.71888 7.5022 6.73193 7.49115 6.74408L7.48115 6.75408L7.47115 6.76308L6.94215 6.23308ZM8.28515 10.7791C9.81215 12.2971 10.9612 12.8891 11.8272 13.0211C12.2702 13.0891 12.6271 13.0351 12.8981 12.9341C13.05 12.8786 13.1918 12.7989 13.3181 12.6981L13.3682 12.6531L13.3752 12.6471L13.3782 12.6441L13.3792 12.6421C13.3792 12.6421 13.3802 12.6411 12.8512 12.1091C12.3212 11.5771 12.3242 11.5761 12.3242 11.5761L12.3261 11.5741L12.3281 11.5721L12.3342 11.5671L12.3442 11.5571L12.3821 11.5271C12.3915 11.5211 12.3891 11.5217 12.3751 11.5291C12.3502 11.5381 12.2521 11.5691 12.0552 11.5391C11.6412 11.4751 10.7712 11.1351 9.34315 9.71508L8.28515 10.7791ZM6.72515 1.15908C5.70515 -0.200918 3.70115 -0.416918 2.48415 0.793082L3.54115 1.85708C4.07315 1.32808 5.01715 1.38308 5.52415 2.06008L6.72515 1.15908ZM1.50315 4.45408C1.48315 4.10808 1.64215 3.74608 1.97215 3.41808L0.91315 2.35408C0.37615 2.88808 -0.04685 3.64408 0.00414998 4.53808L1.50315 4.45408ZM16.2232 16.5141C15.9492 16.7881 15.6532 16.9421 15.3582 16.9691L15.4972 18.4621C16.2322 18.3931 16.8332 18.0231 17.2812 17.5781L16.2232 16.5141ZM7.75715 6.47908C8.74215 5.50008 8.81515 3.95308 7.98615 2.84508L6.78515 3.74408C7.18815 4.28308 7.12815 4.99008 6.70015 5.41708L7.75715 6.47908ZM17.2771 13.0381C18.0941 13.4821 18.2211 14.5281 17.6441 15.1021L18.7022 16.1651C20.0422 14.8321 19.6291 12.6091 17.9921 11.7201L17.2771 13.0381ZM13.8361 12.1891C14.2201 11.8071 14.8382 11.7131 15.3661 11.9991L16.0821 10.6821C14.9981 10.0921 13.6542 10.2551 12.7782 11.1251L13.8361 12.1891Z" fill="#2C3F5B"/>
</svg>
