<svg width="50" height="50" viewBox="0 0 50 50" fill="none" xmlns="http://www.w3.org/2000/svg">
<path d="M25 46.875L11.8188 31.3297C11.6356 31.0963 11.4543 30.8614 11.275 30.625C9.02455 27.6584 7.80832 24.0361 7.81251 20.3125C7.81251 15.7541 9.62333 11.3824 12.8466 8.1591C16.0699 4.93582 20.4416 3.125 25 3.125C29.5584 3.125 33.9301 4.93582 37.1534 8.1591C40.3767 11.3824 42.1875 15.7541 42.1875 20.3125C42.1911 24.0343 40.9755 27.6548 38.7266 30.6203L38.725 30.625C38.725 30.625 38.2563 31.2406 38.1859 31.3234L25 46.875ZM13.7703 28.7422C13.7703 28.7422 14.1344 29.2234 14.2172 29.3266L25 42.0438L35.7969 29.3094C35.8656 29.2234 36.2313 28.7391 36.2328 28.7375C38.0722 26.3143 39.0662 23.3548 39.0625 20.3125C39.0625 16.5829 37.5809 13.006 34.9437 10.3688C32.3065 7.73158 28.7296 6.25 25 6.25C21.2704 6.25 17.6936 7.73158 15.0563 10.3688C12.4191 13.006 10.9375 16.5829 10.9375 20.3125C10.9337 23.3567 11.9288 26.3181 13.7703 28.7422Z" fill="white"/>
<path d="M32.8125 28.125H29.6875V15.625H20.3125V28.125H17.1875V15.625C17.1875 14.7962 17.5167 14.0013 18.1028 13.4153C18.6888 12.8292 19.4837 12.5 20.3125 12.5H29.6875C30.5163 12.5 31.3112 12.8292 31.8972 13.4153C32.4833 14.0013 32.8125 14.7962 32.8125 15.625V28.125Z" fill="white"/>
<path d="M23.4375 25H26.5625V28.125H23.4375V25ZM23.4375 18.75H26.5625V21.875H23.4375V18.75Z" fill="white"/>
</svg>
