<svg width="50" height="50" viewBox="0 0 50 50" fill="none" xmlns="http://www.w3.org/2000/svg">
<g clip-path="url(#clip0_1_2658)">
<path d="M25.2158 -1.75806e-05C26.0346 -1.75806e-05 26.8408 0.0531074 27.5908 0.178107C28.3298 0.273292 29.0587 0.43435 29.769 0.659357C30.4773 0.871857 31.1794 1.14582 31.8752 1.48123C32.5533 1.80311 33.2502 2.19686 33.9471 2.62498C35.1252 3.37498 36.2846 3.98123 37.4658 4.46561C39.7907 5.39824 42.25 5.95214 44.7502 6.10623C46.0148 6.19998 47.3242 6.2479 48.6783 6.24998V18.75C48.6783 21.1229 48.3752 23.3792 47.769 25.5187C47.1865 27.6319 46.359 29.6696 45.3033 31.5906C44.2522 33.509 43.0083 35.3152 41.5908 36.9812C40.1525 38.686 38.5944 40.2859 36.9283 41.7687C35.2388 43.2541 33.4616 44.6368 31.6065 45.9094C29.7481 47.201 27.8794 48.3916 26.0002 49.4812L25.2502 49.9281L24.5002 49.4812C22.5726 48.3656 20.6898 47.174 18.8565 45.9094C16.9913 44.6505 15.2133 43.2671 13.5346 41.7687C11.8696 40.2857 10.3125 38.6858 8.87521 36.9812C7.46256 35.3073 6.21313 33.5023 5.14396 31.5906C4.10728 29.6607 3.28067 27.6251 2.67834 25.5187C2.07228 23.314 1.77156 21.0365 1.78459 18.75V6.24998C3.13875 6.2479 4.44917 6.19998 5.71584 6.10623C6.96497 6.02132 8.20596 5.84269 9.42834 5.57186C10.6252 5.30311 11.8221 4.94686 13.0002 4.46561C14.2224 3.97157 15.3944 3.36148 16.5002 2.64373C17.8752 1.74998 19.269 1.09061 20.644 0.656232C22.1249 0.202762 23.6671 -0.0186118 25.2158 -1.75806e-05ZM45.5346 9.32186C43.1692 9.20608 40.8258 8.81062 38.5533 8.14373C36.2938 7.46795 34.1412 6.47582 32.1596 5.19686C31.1315 4.52376 30.0158 3.99487 28.844 3.62498C27.6727 3.27173 26.4548 3.09685 25.2315 3.10623C23.999 3.09872 22.7722 3.27353 21.5908 3.62498C20.4176 3.98384 19.3036 4.51348 18.2846 5.19686C16.2989 6.48152 14.1409 7.47791 11.8752 8.15623C9.66063 8.79998 7.33875 9.19373 4.90959 9.33748V18.7656C4.90959 20.8344 5.17834 22.8219 5.71584 24.7281C6.2639 26.6207 7.01843 28.4473 7.96584 30.175C8.92498 31.9205 10.0556 33.5661 11.3408 35.0875C12.644 36.6219 14.0346 38.05 15.5346 39.4062C17.0346 40.7625 18.6065 42.0187 20.2502 43.175C21.9106 44.3333 23.571 45.3927 25.2315 46.3531C26.9314 45.3652 28.5881 44.3049 30.1971 43.175C31.8537 42.0219 33.434 40.763 34.9283 39.4062C36.4283 38.05 37.8221 36.6219 39.1252 35.0875C40.4105 33.5661 41.5411 31.9205 42.5002 30.175C43.4428 28.4492 44.1862 26.6218 44.7158 24.7281C45.2702 22.7895 45.5459 20.7819 45.5346 18.7656V9.32186Z" fill="white"/>
<path fill-rule="evenodd" clip-rule="evenodd" d="M36.8658 14.7156L35.4908 13.5343L34.2221 13.6437L20.5971 29.7312L15.9564 23.1062L14.7064 22.8937L13.2596 23.9281L13.0439 25.1781L19.0096 33.6968L19.6877 34.0718L21.1158 34.1593L21.8471 33.8406L36.9564 15.9812L36.8658 14.7156Z" fill="white"/>
</g>
<defs>
<clipPath id="clip0_1_2658">
<rect width="50" height="50" fill="white"/>
</clipPath>
</defs>
</svg>
