<svg width="35" height="50" viewBox="0 0 35 50" fill="none" xmlns="http://www.w3.org/2000/svg">
<g clip-path="url(#clip0_1_2677)">
<path d="M25.5399 25.5595V21.2119H28.2893L34.3423 16.2957C34.4308 16.2306 34.5027 16.1457 34.5523 16.0478C34.6019 15.9498 34.6278 15.8415 34.6278 15.7317V1.06579C34.6278 0.882647 34.556 0.706808 34.4278 0.576024C34.2996 0.445239 34.1252 0.369937 33.9421 0.366281L15.5527 0.000168047C15.429 -0.00254815 15.3068 0.0277055 15.1987 0.0878234C15.0905 0.147941 15.0003 0.235758 14.9373 0.342258L10.1204 8.4489C9.90312 8.74724 10.0675 9.41716 10.3509 12.5628C8.44326 12.5566 8.21318 12.4775 7.90605 12.8171L0.30918 20.3139C0.0073242 20.5654 0.000976562 20.812 0.000976562 20.812L0.500781 36.2056H5.39873V50H23.3914L28.9741 46.1494C29.0702 46.0855 29.149 45.9989 29.2035 45.8972C29.258 45.7956 29.2866 45.682 29.2866 45.5667V29.8479C29.2866 29.6623 29.2129 29.4844 29.0817 29.3532C28.9505 29.2219 28.7725 29.1482 28.5869 29.1482H22.5804C24.747 26.6534 25.5403 26.1098 25.5399 25.5595ZM15.9322 1.40739L32.3107 1.73347L26.3635 8.01735H12.0037L15.9322 1.40739ZM1.79688 20.812L8.67754 14.0219L10.4275 14.0644L10.7965 20.812H1.79688ZM23.3914 48.1792V35.7558L27.8872 31.8756V45.1914L23.3914 48.1792ZM27.2843 30.5476L21.655 35.406H16.4941L21.3338 30.5476H27.2843ZM24.1405 25.2931L17.5512 32.6899L17.7937 21.2119H24.1405V25.2931ZM28.3231 18.9787L28.4892 8.01735L33.2284 2.79958V15.3773L28.3231 18.9787Z" fill="white"/>
</g>
<defs>
<clipPath id="clip0_1_2677">
<rect width="34.67" height="50" fill="white"/>
</clipPath>
</defs>
</svg>
