<svg width="50" height="50" viewBox="0 0 50 50" fill="none" xmlns="http://www.w3.org/2000/svg">
<path d="M29.1673 8.33329C29.1673 9.43836 28.7283 10.4982 27.9469 11.2796C27.1655 12.061 26.1057 12.5 25.0007 12.5C23.8956 12.5 22.8358 12.061 22.0544 11.2796C21.273 10.4982 20.834 9.43836 20.834 8.33329C20.834 7.22822 21.273 6.16842 22.0544 5.38701C22.8358 4.60561 23.8956 4.16663 25.0007 4.16663C26.1057 4.16663 27.1655 4.60561 27.9469 5.38701C28.7283 6.16842 29.1673 7.22822 29.1673 8.33329Z" stroke="white" stroke-width="3.125" stroke-linecap="round" stroke-linejoin="round"/>
<path d="M33.3337 26.0416C33.3337 22.1124 33.3337 20.1499 32.1128 18.9291C30.892 17.7083 28.9295 17.7083 25.0003 17.7083C21.0712 17.7083 19.1087 17.7083 17.8878 18.9291C16.667 20.1499 16.667 22.1124 16.667 26.0416V29.1666C16.667 31.1312 16.667 32.1124 17.2774 32.7228C17.8878 33.3333 18.8691 33.3333 20.8337 33.3333V41.6666C20.8337 43.6312 20.8337 44.6124 21.4441 45.2228C22.0545 45.8333 23.0357 45.8333 25.0003 45.8333C26.9649 45.8333 27.9462 45.8333 28.5566 45.2228C29.167 44.6124 29.167 43.6312 29.167 41.6666V33.3333C31.1316 33.3333 32.1128 33.3333 32.7232 32.7228C33.3337 32.1124 33.3337 31.1312 33.3337 29.1666V26.0416Z" stroke="white" stroke-width="3.125" stroke-linejoin="round"/>
</svg>
