<svg width="50" height="50" viewBox="0 0 50 50" fill="none" xmlns="http://www.w3.org/2000/svg">
<path d="M45.8333 14.5833C45.8333 17.346 44.7359 19.9955 42.7824 21.949C40.8289 23.9025 38.1793 25 35.4167 25C32.654 25 30.0045 23.9025 28.051 21.949C26.0975 19.9955 25 17.346 25 14.5833C25 11.8206 26.0975 9.1711 28.051 7.2176C30.0045 5.26409 32.654 4.16663 35.4167 4.16663C38.1793 4.16663 40.8289 5.26409 42.7824 7.2176C44.7359 9.1711 45.8333 11.8206 45.8333 14.5833Z" stroke="white" stroke-width="3.125"/>
<path d="M35.4163 9.375V14.5833H40.6247M2.08301 45.8333H23.958L43.7497 39.5833V38.7667C43.7489 37.9167 43.5489 37.0787 43.1656 36.32C42.7824 35.5613 42.2266 34.903 41.5429 34.3979C40.8592 33.8929 40.0666 33.5552 39.2287 33.4119C38.3909 33.2686 37.5311 33.3238 36.7184 33.5729L23.958 37.5M23.958 37.5H13.5413M23.958 37.5V31.25L10.8538 29.2333C9.96227 29.0961 9.05155 29.1532 8.18414 29.4009C7.31672 29.6485 6.51312 30.0808 5.82844 30.6682C5.14375 31.2555 4.59417 31.9839 4.21739 32.8036C3.8406 33.6232 3.64551 34.5146 3.64551 35.4167" stroke="white" stroke-width="3.125"/>
</svg>
