<svg width="16" height="16" viewBox="0 0 16 16" fill="none" xmlns="http://www.w3.org/2000/svg">
<g clip-path="url(#clip0_1_1987)">
<path d="M8 0.78125C7.63769 0.78125 7.28125 1.18125 7.28125 1.75C7.28125 2.31875 7.63769 2.71875 8 2.71875C8.36231 2.71875 8.71875 2.31875 8.71875 1.75C8.71875 1.18125 8.36231 0.78125 8 0.78125ZM4.75153 0.874219L4.24847 1.12578C4.72009 2.06906 5.85378 2.90109 6.81684 3.45209L7.26044 9.21875H7.71875V6H8.28125V9.21875H8.73956L9.18316 3.45209C10.1462 2.90109 11.2799 2.06906 11.7515 1.12578L11.2485 0.874219C10.6263 1.80859 9.84562 2.41009 9.01928 2.67953C8.79097 3.04 8.42969 3.28125 8 3.28125C7.57031 3.28125 7.20906 3.04 6.98072 2.6795C6.15438 2.41013 5.37372 1.80859 4.75153 0.874219ZM5.28125 9.78125V12.7812H0.78125V15.2188H15.2188V14.2812H10.7188V9.78125H5.28125Z" fill="#FF6A9E"/>
</g>
<defs>
<clipPath id="clip0_1_1987">
<rect width="16" height="16" fill="white"/>
</clipPath>
</defs>
</svg>
