<svg width="24" height="24" viewBox="0 0 24 24" fill="none" xmlns="http://www.w3.org/2000/svg">
<path d="M6.57039 10.7091C7.99959 13.5179 10.3022 15.8106 13.111 17.2497L15.2945 15.0662C15.5624 14.7982 15.9594 14.7089 16.3068 14.828C17.4184 15.1952 18.6193 15.3937 19.85 15.3937C20.3959 15.3937 20.8425 15.8403 20.8425 16.3862V19.85C20.8425 20.3959 20.3959 20.8425 19.85 20.8425C10.5305 20.8425 2.97754 13.2896 2.97754 3.97004C2.97754 3.42416 3.42416 2.97754 3.97004 2.97754H7.44379C7.98966 2.97754 8.43629 3.42416 8.43629 3.97004C8.43629 5.21066 8.63479 6.40166 9.00201 7.51326C9.11119 7.86064 9.03179 8.24771 8.75389 8.52561L6.57039 10.7091Z" fill="white"/>
</svg>
