<svg width="40" height="40" viewBox="0 0 40 40" fill="none" xmlns="http://www.w3.org/2000/svg">
<path d="M5 8.33331V7.08331C4.66848 7.08331 4.35054 7.21501 4.11612 7.44943C3.8817 7.68385 3.75 8.00179 3.75 8.33331H5ZM35 8.33331H36.25C36.25 8.00179 36.1183 7.68385 35.8839 7.44943C35.6495 7.21501 35.3315 7.08331 35 7.08331V8.33331ZM5 9.58331H35V7.08331H5V9.58331ZM33.75 8.33331V28.3333H36.25V8.33331H33.75ZM31.6667 30.4166H8.33333V32.9166H31.6667V30.4166ZM6.25 28.3333V8.33331H3.75V28.3333H6.25ZM8.33333 30.4166C7.18333 30.4166 6.25 29.4833 6.25 28.3333H3.75C3.75 29.5489 4.23289 30.7147 5.09243 31.5742C5.95197 32.4338 7.11776 32.9166 8.33333 32.9166V30.4166ZM33.75 28.3333C33.75 29.4833 32.8167 30.4166 31.6667 30.4166V32.9166C32.8822 32.9166 34.048 32.4338 34.9076 31.5742C35.7671 30.7147 36.25 29.5489 36.25 28.3333H33.75Z" fill="#E84662"/>
<path d="M5 8.33331L20 23.3333L35 8.33331" stroke="#E84662" stroke-width="1.5" stroke-linecap="round" stroke-linejoin="round"/>
</svg>
