<svg width="40" height="40" viewBox="0 0 40 40" fill="none" xmlns="http://www.w3.org/2000/svg">
<g clip-path="url(#clip0_1_1601)">
<path fill-rule="evenodd" clip-rule="evenodd" d="M13.822 21.1781C13.5095 20.8655 13.334 20.4417 13.334 19.9998C13.334 19.5578 13.5095 19.134 13.822 18.8214L23.2503 9.39309C23.404 9.23391 23.5879 9.10694 23.7913 9.01959C23.9946 8.93224 24.2133 8.88626 24.4346 8.88434C24.6559 8.88242 24.8754 8.92459 25.0802 9.00839C25.285 9.09219 25.4711 9.21595 25.6276 9.37243C25.7841 9.52892 25.9079 9.71501 25.9917 9.91983C26.0755 10.1247 26.1176 10.3441 26.1157 10.5654C26.1138 10.7867 26.0678 11.0054 25.9805 11.2088C25.8931 11.4121 25.7661 11.596 25.607 11.7498L17.357 19.9998L25.607 28.2498C25.9106 28.5641 26.0785 28.9851 26.0748 29.4221C26.071 29.8591 25.8957 30.2771 25.5867 30.5861C25.2776 30.8951 24.8596 31.0704 24.4226 31.0742C23.9856 31.078 23.5646 30.91 23.2503 30.6064L13.822 21.1781Z" fill="#1E1E1E"/>
</g>
<defs>
<clipPath id="clip0_1_1601">
<rect width="40" height="40" fill="white"/>
</clipPath>
</defs>
</svg>
