<svg width="40" height="40" viewBox="0 0 40 40" fill="none" xmlns="http://www.w3.org/2000/svg">
<g clip-path="url(#clip0_1_1605)">
<path fill-rule="evenodd" clip-rule="evenodd" d="M26.1786 18.8215C26.491 19.134 26.6666 19.5579 26.6666 19.9998C26.6666 20.4418 26.491 20.8656 26.1786 21.1781L16.7502 30.6065C16.5965 30.7657 16.4126 30.8926 16.2093 30.98C16.0059 31.0673 15.7872 31.1133 15.5659 31.1152C15.3446 31.1172 15.1252 31.075 14.9203 30.9912C14.7155 30.9074 14.5294 30.7836 14.3729 30.6271C14.2164 30.4706 14.0927 30.2846 14.0089 30.0797C13.9251 29.8749 13.8829 29.6554 13.8848 29.4341C13.8868 29.2128 13.9327 28.9941 14.0201 28.7908C14.1074 28.5875 14.2344 28.4036 14.3936 28.2498L22.6436 19.9998L14.3936 11.7498C14.09 11.4355 13.922 11.0145 13.9258 10.5775C13.9296 10.1405 14.1049 9.72246 14.4139 9.41345C14.7229 9.10443 15.1409 8.92915 15.5779 8.92536C16.0149 8.92156 16.4359 9.08955 16.7502 9.39315L26.1786 18.8215Z" fill="#1E1E1E"/>
</g>
<defs>
<clipPath id="clip0_1_1605">
<rect width="40" height="40" fill="white"/>
</clipPath>
</defs>
</svg>
