<svg width="33" height="31" viewBox="0 0 33 31" fill="none" xmlns="http://www.w3.org/2000/svg">
<path d="M22.3006 21.0684L23.0606 20.3134L21.2956 18.5401L20.5389 19.2951L22.3006 21.0684ZM25.6089 19.9968L28.7939 21.7284L29.9856 19.5318L26.8022 17.8018L25.6089 19.9968ZM29.4056 25.1684L27.0389 27.5234L28.8006 29.2951L31.1672 26.9418L29.4056 25.1684ZM25.5956 28.2801C23.1789 28.5068 16.9289 28.3051 10.1589 21.5751L8.39558 23.3468C15.7822 30.6918 22.8139 31.0518 25.8289 30.7701L25.5956 28.2801ZM10.1589 21.5751C3.70724 15.1584 2.63724 9.76343 2.50391 7.42176L0.00724216 7.56343C0.173909 10.5101 1.49891 16.4901 8.39558 23.3468L10.1589 21.5751ZM12.4506 11.2751L12.9289 10.7984L11.1689 9.02676L10.6906 9.50176L12.4506 11.2751ZM13.3089 4.7401L11.2089 1.93343L9.20724 3.43343L11.3072 6.23843L13.3089 4.7401ZM4.14057 1.32176L1.52391 3.92176L3.28724 5.6951L5.90224 3.0951L4.14057 1.32176ZM11.5706 10.3884C10.6872 9.50176 10.6872 9.50176 10.6872 9.5051H10.6839L10.6789 9.51176C10.5997 9.59162 10.5288 9.67929 10.4672 9.77343C10.3772 9.90676 10.2789 10.0818 10.1956 10.3034C9.9927 10.8756 9.94216 11.4908 10.0489 12.0884C10.2722 13.5301 11.2656 15.4351 13.8089 17.9651L15.5722 16.1918C13.1906 13.8251 12.6239 12.3851 12.5189 11.7051C12.4689 11.3818 12.5206 11.2218 12.5356 11.1851C12.5456 11.1629 12.5456 11.1595 12.5356 11.1751C12.5207 11.1981 12.504 11.2198 12.4856 11.2401L12.4689 11.2568L12.4522 11.2718L11.5706 10.3884ZM13.8089 17.9651C16.3539 20.4951 18.2689 21.4818 19.7122 21.7018C20.4506 21.8151 21.0456 21.7251 21.4972 21.5568C21.7502 21.4642 21.9866 21.3314 22.1972 21.1634L22.2806 21.0884L22.2922 21.0784L22.2972 21.0734L22.2989 21.0701C22.2989 21.0701 22.3006 21.0684 21.4189 20.1818C20.5356 19.2951 20.5406 19.2934 20.5406 19.2934L20.5439 19.2901L20.5472 19.2868L20.5572 19.2784L20.5739 19.2618L20.6372 19.2118C20.6528 19.2018 20.6489 19.2029 20.6256 19.2151C20.5839 19.2301 20.4206 19.2818 20.0922 19.2318C19.4022 19.1251 17.9522 18.5584 15.5722 16.1918L13.8089 17.9651ZM11.2089 1.93176C9.50891 -0.334904 6.16891 -0.694904 4.14057 1.32176L5.90224 3.0951C6.78891 2.21343 8.36224 2.3051 9.20724 3.43343L11.2089 1.93176ZM2.50558 7.42343C2.47224 6.84676 2.73724 6.24343 3.28724 5.69676L1.52224 3.92343C0.627242 4.81343 -0.0777578 6.07343 0.00724216 7.56343L2.50558 7.42343ZM27.0389 27.5234C26.5822 27.9801 26.0889 28.2368 25.5972 28.2818L25.8289 30.7701C27.0539 30.6551 28.0556 30.0384 28.8022 29.2968L27.0389 27.5234ZM12.9289 10.7984C14.5706 9.16676 14.6922 6.58843 13.3106 4.74176L11.3089 6.2401C11.9806 7.13843 11.8806 8.31676 11.1672 9.02843L12.9289 10.7984ZM28.7956 21.7301C30.1572 22.4701 30.3689 24.2134 29.4072 25.1701L31.1706 26.9418C33.4039 24.7201 32.7156 21.0151 29.9872 19.5334L28.7956 21.7301ZM23.0606 20.3151C23.7006 19.6784 24.7306 19.5218 25.6106 19.9984L26.8039 17.8034C24.9972 16.8201 22.7572 17.0918 21.2972 18.5418L23.0606 20.3151Z" fill="#E84662"/>
</svg>
